<svg xmlns="http://www.w3.org/2000/svg" style="display: none;">
  <symbol id="icn-ac-rouge" viewBox="0 0 200 200">
    <path d="M100 6.59C48.41 6.59 6.59 48.41 6.59 100s41.82 93.41 93.41 93.41 93.41-41.82 93.41-93.41S151.59 6.59 100 6.59zm49.55 37.96c-15.72 7.28-27.42 13.33-34.79 17.99C98.08 72.9 88.44 82.52 86.09 91.16c-2.08 7.81-3.64 15.5-4.64 22.84-1 7.14-1.57 14.27-1.69 21.19-.01 2.09.05 4.18.17 6.17.13 2.29.3 4.34.54 6.25l.14 1.18-.89.78c-13.64 11.69-17.74 13.43-19.8 13.62l-.18.03h-.04c-6.02 0-14.01-11.14-29.54-90.23l-.34-.17v-.15c0-4.22 1.25-7.5 3.09-9.72 1.92-2.31 4.91-3.48 8.58-3.48.92 0 2.12.01 12.96 7.53 7.44 5.48 9.86 6.23 10.43 6.33 1.02-.4 5.99-3.27 29.69-21.94 19.7-15.41 33.34-22.91 41.68-22.91 3.88 0 8.39 4.07 14.2 12.81l1.45 2.15-2.35 1.11z"/>
  </symbol>
  <symbol id="icn-ac" viewBox="0 0 200 200">
    <path d="M103.42 139.86c0-6.11 3.14-7.23 8.97-3.98 10.74 6 21.91 12.2 21.91 12.2.39-3.42 3.35-6.3 9.78-4.83 6 1.4 12.7 2.89 12.7 2.89s-3.61-8.15-5.22-11.7c-2.96-6.57-.14-9.71 2.75-10.63 0 0-4.09-2.78-6.81-4.66-5.79-4.04-4.43-7.93 1.17-10.36 7.69-3.29 17.21-7.55 17.21-7.55-3.02-1.79-6.59-6.77-2.61-12.55 3.94-5.71 9.82-13.71 9.82-13.71s-10.4.09-17.32 0c-6.28-.09-7.84-5.06-7.76-8.64 0 0-10.23 7.22-17.55 12.17-6.16 4.16-11.76.12-10.83-7.02 1.46-11.18 2.79-23.5 2.79-23.5-3.81 2.59-10.33 2.47-13.19-3.73-4.28-9.22-9.2-20-9.2-20s-4.94 10.78-9.2 20c-2.86 6.2-9.4 6.32-13.2 3.73 0 0 1.32 12.32 2.78 23.5.92 7.14-4.66 11.19-10.81 7.02-7.33-4.94-17.57-12.17-17.57-12.17.07 3.59-1.46 8.56-7.76 8.64-6.91.09-17.3 0-17.3 0s5.87 7.99 9.82 13.71c3.98 5.78.39 10.76-2.61 12.55 0 0 9.52 4.26 17.2 7.55 5.62 2.43 6.99 6.33 1.16 10.36-2.7 1.88-6.79 4.66-6.79 4.66 2.89.92 5.71 4.06 2.75 10.63-1.61 3.55-5.21 11.7-5.21 11.7s6.7-1.49 12.71-2.89c6.42-1.47 9.4 1.41 9.78 4.83 0 0 11.16-6.19 21.9-12.2 5.82-3.25 8.95-2.13 8.96 3.98v15c.02 8.66-1.5 18.15-4.83 23.2-41.16-4.48-75.22-37.41-75.28-80.87-.07-44.73 37.37-81 83.46-81 46.07 0 83.44 36.27 83.44 81 0 41.83-32.52 75.99-74.14 80.51v10.94c48.92-4.45 87.19-43.7 87.19-91.44 0-50.73-43.22-91.86-96.49-91.86-53.29 0-96.5 41.13-96.5 91.86 0 44.67 33.47 81.82 77.84 90.14 7.51 1.42 12.28 2.51 16.21 7.35 4.75-8.65 5.87-27.03 5.87-37.39.01-.01 0-12.68.01-17.44z"/>
  </symbol>
  <symbol id="icn-confirmation" viewBox="0 0 153.48 130.09">
    <path d="M58.13 130.09c-3.63 0-7.06-1.64-9.33-4.47L2.64 68.14C-1.5 62.99-.68 55.46 4.47 51.32S17.15 48 21.3 53.16l36.73 45.73L132.1 4.58c4.08-5.2 11.6-6.1 16.8-2.02 5.2 4.08 6.1 11.6 2.02 16.8L67.55 125.51c-2.25 2.87-5.7 4.55-9.35 4.57-.02.01-.04.01-.07.01z" />
  </symbol>
  <symbol id="icn-flight-to" viewBox="0 0 187.69 187.69">
    <path d="M80.9 163.19h-8.17a3.997 3.997 0 0 1-3.84-5.1l14.88-52.08H53.4l-11.05 14.74a3.997 3.997 0 0 1-3.2 1.6h-8.17c-1.29 0-2.49-.62-3.25-1.66s-.96-2.38-.55-3.6l7.75-23.24-7.74-23.25c-.41-1.22-.2-2.56.55-3.6s1.96-1.66 3.25-1.66h8.17c1.26 0 2.44.59 3.2 1.6L53.4 81.67h30.36L68.88 29.6c-.35-1.21-.1-2.5.65-3.51.76-1 1.94-1.59 3.19-1.59h8.17c1.44 0 2.76.77 3.47 2.02l31.52 55.16h37.61c6.71 0 12.17 5.46 12.17 12.17s-5.46 12.17-12.17 12.17h-37.61l-31.52 55.16a3.979 3.979 0 0 1-3.46 2.01zm-2.87-8h.54l31.52-55.16a3.996 3.996 0 0 1 3.47-2.02h39.94c2.3 0 4.17-1.87 4.17-4.17s-1.87-4.17-4.17-4.17h-39.94c-1.44 0-2.76-.77-3.47-2.02L78.58 32.5h-.54l14.88 52.08c.35 1.21.1 2.5-.65 3.51-.76 1-1.94 1.59-3.19 1.59H51.4c-1.26 0-2.44-.59-3.2-1.6L37.15 73.33h-.62l6.41 19.24c.27.82.27 1.71 0 2.53l-6.41 19.24h.62L48.2 99.61c.76-1.01 1.94-1.6 3.2-1.6h37.67a3.997 3.997 0 0 1 3.84 5.1l-14.88 52.08z"/><path d="M93.84 187.69C42.1 187.69 0 145.59 0 93.84 0 42.1 42.1 0 93.84 0s93.84 42.1 93.84 93.84c.01 51.75-42.09 93.85-93.84 93.85zm0-176.69C48.16 11 11 48.16 11 93.84c0 45.68 37.16 82.84 82.84 82.84s82.84-37.16 82.84-82.84C176.69 48.16 139.52 11 93.84 11z"/>
  </symbol>
  <symbol id="icn-info" viewBox="0 0 200 200">
    <path d="M114.1 57.97c0-7.67-6.12-13.46-14.09-13.46-7.99 0-14.1 6.11-14.1 13.46 0 7.67 6.11 13.63 14.1 13.63 7.97 0 14.09-6.26 14.09-13.63z"/><path d="M100 193.84c-51.75 0-93.84-42.1-93.84-93.84S48.25 6.16 100 6.16s93.84 42.1 93.84 93.84-42.09 93.84-93.84 93.84zm0-176.68c-45.68 0-82.84 37.16-82.84 82.84s37.16 82.84 82.84 82.84 82.84-37.16 82.84-82.84S145.68 17.16 100 17.16z"/><path d="M100.33 154.8c-6.08 0-11-4.92-11-11V93.18c0-6.08 4.92-11 11-11s11 4.92 11 11v50.62c0 6.07-4.92 11-11 11z"/>
  </symbol>
  <symbol id="icn-passenger" viewBox="0 0 118.17 194.94">
    <path d="M59.08,70a35,35,0,1,0-35-35A35.05,35.05,0,0,0,59.08,70Zm0-59a24,24,0,1,1-24,24A24,24,0,0,1,59.08,11Z"/>
    <path d="M117.8,122.33a37.76,37.76,0,0,0-3.25-15.07c-9.7-21.9-34.19-29.65-54.34-29.65H59.09C38.73,77.36,13.51,85,3.63,107.27A37.76,37.76,0,0,0,.38,122.34c-.59,18.85-.38,30.35-.11,44.9.12,6.71.25,13.66.32,22.24a5.48,5.48,0,0,0,5.54,5.46h0a5.5,5.5,0,0,0,5.45-5.54c-.07-8.64-.2-15.93-.32-22.36-.27-14.42-.48-25.81.1-44.44v-.17a26.67,26.67,0,0,1,2.31-10.71C21.4,94.29,42.18,88.38,59,88.62h1.23c16.64,0,36.7,6,44.26,23.11a26.67,26.67,0,0,1,2.31,10.71v.17c.58,18.63.37,30,.1,44.44-.12,6.43-.25,13.72-.32,22.36a5.5,5.5,0,0,0,5.46,5.54h0a5.51,5.51,0,0,0,5.51-5.47c.07-8.58.2-15.52.32-22.24C118.17,152.68,118.39,141.18,117.8,122.33Z"/>
  </symbol>
  <symbol id="icn-profile" viewBox="0 0 118.18 194.94">
    <path d="M280.19 46.6a35 35 0 1 0 35 35 35 35 0 0 0-35-35zM338.9 168.93a37.84 37.84 0 0 0-3.25-15.08c-9.88-22.3-35.11-29.93-55.46-29.64-20.36-.3-45.58 7.34-55.47 29.64a38 38 0 0 0-3.25 15.08c-.58 18.85-.37 30.34-.1 44.89.12 6.72.25 13.67.32 22.26a5.49 5.49 0 0 0 5.5 5.45h106a5.5 5.5 0 0 0 5.5-5.45c.06-8.59.19-15.54.32-22.26.27-14.55.48-26.04-.11-44.89z" transform="translate(-221.1 -46.6)"/>
  </symbol>
  <symbol id="icn-search" viewBox="0 0 200 200">
    <path d="M189.55 162.97l-49.21-49.21c5.37-9.89 8.42-21.22 8.42-33.24 0-38.57-31.38-69.95-69.95-69.95S8.84 41.95 8.84 80.52c0 38.57 31.38 69.95 69.95 69.95 13.82 0 26.7-4.04 37.56-10.99l48.34 48.34c1.07 1.07 2.48 1.61 3.89 1.61s2.82-.54 3.89-1.61l17.07-17.07a5.507 5.507 0 0 0 .01-7.78zM19.84 80.52c0-32.51 26.45-58.95 58.95-58.95s58.95 26.45 58.95 58.95c0 32.51-26.45 58.95-58.95 58.95s-58.95-26.45-58.95-58.95zm105.37 52.27c3.28-2.92 6.29-6.14 8.97-9.62l43.69 43.69-9.3 9.3" fill="#231f20"/>
  </symbol>
  <symbol id="icn-material-person" viewBox="0 0 24 24"><path d="M12 12c2.21 0 4-1.79 4-4s-1.79-4-4-4-4 1.79-4 4 1.79 4 4 4zm0 2c-2.67 0-8 1.34-8 4v2h16v-2c0-2.66-5.33-4-8-4z"/><path d="M0 0h24v24H0z" fill="none"/></symbol>
  <symbol id="icn-add" viewBox="0 0 200 200"><path d="M100 193.84c-51.75 0-93.84-42.1-93.84-93.84S48.25 6.16 100 6.16s93.84 42.1 93.84 93.84-42.09 93.84-93.84 93.84zm0-176.68c-45.68 0-82.84 37.16-82.84 82.84s37.16 82.84 82.84 82.84 82.84-37.16 82.84-82.84S145.68 17.16 100 17.16z"/><path d="M152.33 90.22h-42.66V47.81c0-5.51-4-9.97-9.5-9.97s-9.5 4.46-9.5 9.97v42.41H47.95c-5.5 0-9.97 4.49-9.97 10s4.46 10 9.97 10h42.72v41.98c0 5.51 4 9.97 9.5 9.97s9.5-4.46 9.5-9.97v-41.98h42.66c5.5 0 9.97-4.49 9.97-10s-4.46-10-9.97-10z"/></symbol>
  <symbol id="icn-minus" viewBox="0 0 200 200"><path d="M100 193.84c-51.75 0-93.84-42.1-93.84-93.84S48.25 6.16 100 6.16s93.84 42.1 93.84 93.84-42.09 93.84-93.84 93.84zm0-176.68c-45.68 0-82.84 37.16-82.84 82.84s37.16 82.84 82.84 82.84 82.84-37.16 82.84-82.84S145.68 17.16 100 17.16z"/><path d="M47.95 90.22c-5.5 0-9.97 4.49-9.97 10s4.46 10 9.97 10h104.39c5.5 0 9.97-4.49 9.97-10s-4.46-10-9.97-10H47.95z"/></symbol>
  <symbol id="icn-calendar" viewBox="0 0 200 200"><path d="M177.85 184.61H22.15c-3.04 0-5.5-2.46-5.5-5.5V41.45c0-3.04 2.46-5.5 5.5-5.5h21.38c3.04 0 5.5 2.46 5.5 5.5s-2.46 5.5-5.5 5.5H27.65v126.66h144.7V46.95h-15.88c-3.04 0-5.5-2.46-5.5-5.5s2.46-5.5 5.5-5.5h21.38c3.04 0 5.5 2.46 5.5 5.5v137.66c0 3.04-2.46 5.5-5.5 5.5z"/><path d="M85.26 46.95H72.95c-3.04 0-5.5-2.46-5.5-5.5s2.46-5.5 5.5-5.5h12.31c3.04 0 5.5 2.46 5.5 5.5s-2.46 5.5-5.5 5.5zM127.18 46.95h-12.31c-3.04 0-5.5-2.46-5.5-5.5s2.46-5.5 5.5-5.5h12.31c3.04 0 5.5 2.46 5.5 5.5s-2.46 5.5-5.5 5.5zM58.2 55.55c-3.04 0-5.5-2.46-5.5-5.5V20.89c0-3.04 2.46-5.5 5.5-5.5s5.5 2.46 5.5 5.5v29.17c0 3.03-2.46 5.49-5.5 5.49zM100 55.55c-3.04 0-5.5-2.46-5.5-5.5V20.89c0-3.04 2.46-5.5 5.5-5.5s5.5 2.46 5.5 5.5v29.17c0 3.03-2.46 5.49-5.5 5.49zM141.59 55.55c-3.04 0-5.5-2.46-5.5-5.5V20.89c0-3.04 2.46-5.5 5.5-5.5s5.5 2.46 5.5 5.5v29.17c0 3.03-2.46 5.49-5.5 5.49z"/><path d="M127.27 106.56h19.29v19.29h-19.29zM127.27 136.16h19.29v19.29h-19.29zM127.27 76.96h19.29v19.29h-19.29z"/><path d="M90.27 106.56h19.29v19.29H90.27zM90.27 136.16h19.29v19.29H90.27zM90.27 76.96h19.29v19.29H90.27z"/><path d="M53.27 106.56h19.29v19.29H53.27zM53.27 136.16h19.29v19.29H53.27zM53.27 76.96h19.29v19.29H53.27z"/></symbol>
  <symbol id="icn-angle-previous" viewBox="0 0 200 200"><path d="M142.59 187.36c-1.37 0-2.74-.51-3.81-1.53L53.6 103.97a5.507 5.507 0 0 1 0-7.94l85.18-81.86a5.5 5.5 0 1 1 7.62 7.93L65.35 100l81.05 77.89c2.19 2.1 2.26 5.59.16 7.78a5.515 5.515 0 0 1-3.97 1.69z"/></symbol>
  <symbol id="icn-angle-next" viewBox="0 0 200 200"><path d="M57.41 187.36a5.5 5.5 0 0 1-3.81-9.47L134.65 100 53.6 22.11a5.509 5.509 0 0 1-.16-7.78 5.5 5.5 0 0 1 7.78-.15l85.18 81.86a5.507 5.507 0 0 1 0 7.94l-85.18 81.86a5.54 5.54 0 0 1-3.81 1.52z"/></symbol>
  <symbol  id="icn-close" viewBox="0 0 200 200"><path d="M190.41 180.63L109.78 100l80.63-80.63c2.7-2.7 2.7-7.07 0-9.77-2.7-2.7-7.07-2.7-9.77 0L100 90.22 19.37 9.59c-2.7-2.7-7.07-2.7-9.77 0-2.7 2.7-2.7 7.07 0 9.77L90.23 100 9.59 180.64a6.905 6.905 0 0 0 4.89 11.79c1.77 0 3.54-.67 4.89-2.02L100 109.77l80.64 80.64a6.889 6.889 0 0 0 4.89 2.02c1.77 0 3.54-.67 4.89-2.02a6.926 6.926 0 0 0-.01-9.78z"/></symbol>
  <symbol  id="icn-confirmation-circle" viewBox="0 0 200 200"><path class="st0" d="M100 191.34c-50.37 0-91.34-40.98-91.34-91.34S49.63 8.66 100 8.66c50.37 0 91.34 40.98 91.34 91.34s-40.97 91.34-91.34 91.34zm0-176.68c-47.06 0-85.34 38.28-85.34 85.34s38.28 85.34 85.34 85.34 85.34-38.28 85.34-85.34S147.06 14.66 100 14.66z"/><path class="st0" d="M79.5 164.65c-3.02 0-5.88-1.37-7.77-3.73l-38.46-47.88c-3.45-4.29-2.76-10.57 1.53-14.01s10.57-2.76 14.01 1.53l30.6 38.09 61.7-78.56c3.4-4.33 9.67-5.08 14-1.68 4.33 3.4 5.08 9.67 1.68 14l-69.46 88.43a9.995 9.995 0 0 1-7.79 3.81h-.04z"/></symbol>
  <symbol id="icn-cancel-expand" viewBox="0 0 200 200"><path d="M100 193.84c-51.75 0-93.84-42.1-93.84-93.84S48.25 6.16 100 6.16s93.84 42.1 93.84 93.84-42.09 93.84-93.84 93.84zm0-176.68c-45.68 0-82.84 37.16-82.84 82.84s37.16 82.84 82.84 82.84 82.84-37.16 82.84-82.84S145.68 17.16 100 17.16z"/><path d="M144.1 129.86L114.24 100l29.85-29.85c3.89-3.89 3.89-10.2 0-14.1-3.89-3.89-10.2-3.89-14.1 0L100.14 85.9 70.29 56.05c-3.89-3.89-10.21-3.89-14.1 0-3.89 3.89-3.89 10.2 0 14.1L86.05 100l-29.86 29.86c-3.89 3.89-3.89 10.2 0 14.1a9.934 9.934 0 0 0 7.05 2.92c2.55 0 5.1-.97 7.05-2.92l29.86-29.86L130 143.96c1.95 1.95 4.5 2.92 7.05 2.92s5.1-.97 7.05-2.92c3.89-3.9 3.89-10.21 0-14.1z"/></symbol>
  <symbol id="icn-open-new-window" viewBox="0 0 200 200"><path d="M185.69 9H56.86C53.82 9 51 11.56 51 14.6V47H14.66C11.62 47 9 49.96 9 53v132.37c0 3.04 2.62 5.64 5.66 5.64h128.83c3.04 0 5.51-2.6 5.51-5.64V152h36.69c3.04 0 5.31-2 5.31-5.04V14.6c0-3.04-2.27-5.6-5.31-5.6zM138 180H20V78h31v68.96c0 3.04 2.82 5.04 5.86 5.04H138v28zm-76-39V40h118v101H62z"/><path d="M152.64 63.02l-46.55-6.79a6.82 6.82 0 0 0-.65-.06h-.19a8.492 8.492 0 0 0-8.85 7.71 8.43 8.43 0 0 0 1.93 6.21 8.447 8.447 0 0 0 5.22 2.95c.06.01.08.01 25.1 3.66l-43.9 36.56c-3.6 3-4.09 8.37-1.09 11.98a8.478 8.478 0 0 0 6.54 3.06c1.92 0 3.85-.64 5.43-1.96l43.9-36.56-.92 24.86c-.19 2.25.49 4.42 1.93 6.15a8.44 8.44 0 0 0 5.76 3.03 8.43 8.43 0 0 0 6.21-1.93 8.55 8.55 0 0 0 3.05-6.21l1.76-47.01c.13-2.81-1.9-5.25-4.68-5.65z"/></symbol>
  <symbol id="icn-open-in-new-window" viewBox="0 0 14 14">
    <path d="M13,1.59h0a.73.73,0,0,0,0-.13h0l-.06-.12h0a.73.73,0,0,0-.2-.2h0l-.12-.06h0l-.13,0H3.87a.72.72,0,1,0,0,1.44h6.67L1.21,11.77a.72.72,0,1,0,1,1l9.33-9.33v6.67a.72.72,0,0,0,1.44,0V1.72A.73.73,0,0,0,13,1.59Z"/>
  </symbol>
  <symbol id="icn-question" viewBox="0 0 200 200"><path d="M99.9998,9.9999 C149.6308,9.9999 189.9998,50.3789 189.9998,99.9999 C189.9998,149.6209 149.6308,189.9999 99.9998,189.9999 C50.3688,189.9999 9.9998,149.6209 9.9998,99.9999 C9.9998,50.3789 50.3688,9.9999 99.9998,9.9999 Z M99.9998,15.9119 C53.6308,15.9119 15.9118,53.6299 15.9118,99.9999 C15.9118,146.3699 53.6308,184.0879 99.9998,184.0879 C146.3698,184.0879 184.0878,146.3699 184.0878,99.9999 C184.0878,53.6299 146.3698,15.9119 99.9998,15.9119 Z M98.3846,136.2939 C101.2846,136.2939 103.7826,137.3419 105.8776,139.4369 C107.9726,141.5309 109.0196,144.0279 109.0196,146.9289 C109.0196,149.8289 107.9726,152.3269 105.8776,154.4219 C103.7826,156.5169 101.2846,157.5639 98.3846,157.5639 C95.4846,157.5639 92.9876,156.5169 90.8926,154.4219 C88.7976,152.3269 87.7496,149.8289 87.7496,146.9289 C87.7496,144.0279 88.7976,141.5309 90.8926,139.4369 C92.9876,137.3419 95.4846,136.2939 98.3846,136.2939 Z M100.1569,39.6147 C104.6689,39.6147 108.8839,40.2857 112.8069,41.6277 C116.7259,42.9727 120.1379,44.9067 123.0379,47.4287 C125.9379,49.9537 128.2199,53.0697 129.8869,56.7747 C131.5509,60.4817 132.3839,64.6987 132.3839,69.4237 C132.3839,73.5077 131.7919,77.0767 130.6109,80.1397 C129.4289,83.1997 127.7639,86.0757 125.6159,88.7597 L125.6159,88.7597 L115.9479,98.7497 L114.3369,100.1997 C112.6169,101.8117 111.2479,103.1807 110.2279,104.3097 C109.2059,105.4377 108.3999,106.6197 107.8109,107.8547 C107.2199,109.0907 106.8159,110.4597 106.6019,111.9637 C106.3869,113.4687 106.2799,115.3467 106.2799,117.6027 C106.2799,121.5187 103.1059,124.6927 99.1899,124.6927 L99.1899,124.6927 L97.9009,124.6927 C93.9849,124.6927 90.8109,121.5187 90.8109,117.6027 L90.8109,117.6027 L90.8109,114.8647 C90.8109,111.9637 91.0249,109.5457 91.4559,107.6127 C91.8839,105.6787 92.5279,103.9347 93.3899,102.3757 C94.2479,100.8197 95.4039,99.3137 96.8539,97.8647 C98.3049,96.4127 100.1009,94.6687 102.2519,92.6267 C103.9699,91.0157 105.6879,89.3797 107.4079,87.7117 C109.1259,86.0477 110.6839,84.3287 112.0809,82.5557 C113.4759,80.7837 114.6319,78.9057 115.5459,76.9167 C116.4569,74.9307 116.9149,72.7017 116.9149,70.2297 C116.9149,67.7597 116.4569,65.4757 115.5459,63.3817 C114.6319,61.2857 113.4229,59.4897 111.9199,57.9837 C110.4149,56.4807 108.6169,55.2997 106.5219,54.4387 C104.4279,53.5797 102.1959,53.1497 99.8349,53.1497 C94.5699,53.1497 90.3009,54.8157 87.0249,58.1447 C85.0699,60.1307 83.5849,62.4797 82.5669,65.1917 C81.2669,68.6547 77.8829,70.8757 74.2009,70.5157 C68.7399,69.9807 65.4049,64.2527 67.6269,59.2357 C69.6609,54.6387 72.5829,50.7567 76.3909,47.5907 C82.7799,42.2727 90.7029,39.6147 100.1569,39.6147 Z"/></symbol>
  <symbol id="icn-error-warning" viewBox="0 0 200 200"><path class="st0" d="M100 191.34c-50.37 0-91.34-40.98-91.34-91.34S49.63 8.66 100 8.66s91.34 40.98 91.34 91.34-40.97 91.34-91.34 91.34zm0-176.68c-47.06 0-85.34 38.28-85.34 85.34s38.28 85.34 85.34 85.34 85.34-38.28 85.34-85.34S147.06 14.66 100 14.66z"/><path class="st0" d="M85.9 150.04c0 7.67 6.12 13.46 14.09 13.46 7.99 0 14.1-6.11 14.1-13.46 0-7.67-6.11-13.63-14.1-13.63-7.97 0-14.09 6.26-14.09 13.63zM99.67 125.83c-6.08 0-11-4.92-11-11V49.2c0-6.08 4.92-11 11-11s11 4.92 11 11v65.63c0 6.07-4.92 11-11 11z"/></symbol>
  <symbol id="icn-profile-pilot" viewBox="0 0 15 24"><path d="M12.3469388,8.63510204 C9.98489796,8.63510204 8.06244898,6.71265306 8.06244898,4.35061224 C8.06244898,1.98857143 9.98367347,0.0648979592 12.3469388,0.0648979592 C14.7102041,0.0648979592 16.6326531,1.98734694 16.6326531,4.34938776 C16.6326531,6.71142857 14.7102041,8.63510204 12.3469388,8.63510204 Z M12.3469388,1.41183673 C10.7269388,1.41183673 9.40938776,2.72938776 9.40938776,4.34938776 C9.40938776,5.96938776 10.7269388,7.28816327 12.3469388,7.28816327 C13.9669388,7.28816327 15.2857143,5.97061224 15.2857143,4.35061224 C15.2857143,2.73061224 13.9669388,1.41183673 12.3469388,1.41183673 Z M18.8367347,23.935102 L18.8318367,23.935102 C18.4595918,23.9326531 18.1608163,23.6277551 18.1632653,23.2567347 C18.1718367,22.197551 18.1877551,21.304898 18.202449,20.5163265 C18.2355102,18.7506122 18.2612245,17.3571429 18.1889796,15.0771429 L18.1889796,15.0563265 C18.1889796,14.6155102 18.0910204,14.162449 17.9061224,13.744898 C16.9608163,11.6106122 14.415102,10.8881633 12.3567347,10.9163265 L12.3359184,10.9163265 C10.275102,10.8869388 7.73183673,11.6106122 6.78653061,13.744898 C6.60163265,14.162449 6.50367347,14.6155102 6.50367347,15.0563265 L6.50367347,15.0771429 C6.43265306,17.3571429 6.45836735,18.7518367 6.49142857,20.517551 C6.50612245,21.304898 6.52204082,22.1987755 6.53061224,23.2567347 C6.53201375,23.4353805 6.46233822,23.6072553 6.33693475,23.7344961 C6.21153127,23.861737 6.04068807,23.933905 5.86204082,23.935102 L5.85714286,23.935102 C5.48734694,23.935102 5.18612245,23.637551 5.18367347,23.2665306 C5.17510204,22.2146939 5.15918367,21.3636735 5.1444898,20.5408163 C5.11142857,18.7591837 5.08571429,17.3522449 5.15795918,15.0440816 C5.15918367,14.4208163 5.29755102,13.7828571 5.55591837,13.1987755 C6.76571429,10.4669388 9.85510204,9.53755102 12.3469388,9.56816327 C14.84,9.53755102 17.9281633,10.4669388 19.1379592,13.1987755 C19.3963265,13.7828571 19.5346939,14.4208163 19.5359184,15.0440816 C19.6081633,17.3522449 19.582449,18.7591837 19.5493878,20.5408163 C19.5346939,21.3636735 19.5187755,22.2146939 19.5102041,23.2665306 C19.5074463,23.6365353 19.2067496,23.935102 18.8367347,23.935102 L18.8367347,23.935102 Z" id="Profile"></path></symbol>
  <symbol id="icn-flight" viewBox="0 0 24 24"><path d="M9.34515464,23.9245361 L7.93979381,23.9245361 C7.72639248,23.9242801 7.52544515,23.8240276 7.39689938,23.6536862 C7.26835361,23.4833449 7.22706865,23.2626053 7.28536082,23.0573196 L9.84865979,14.0857732 L4.60948454,14.0857732 L2.70556701,16.6243299 C2.57683845,16.7953863 2.37531933,16.8961458 2.16123711,16.8964948 L0.755876289,16.8964948 C0.536907216,16.8964948 0.331546392,16.7913402 0.204123711,16.614433 C0.0768553006,16.4370097 0.0419234988,16.2094933 0.110103093,16.0020619 L1.44371134,12 L0.110103093,7.99793814 C0.0408247423,7.79010309 0.0754639175,7.56247423 0.204123711,7.38556701 C0.332016084,7.2083297 0.537313924,7.10337924 0.755876289,7.10350515 L2.16123711,7.10350515 C2.37525773,7.10350515 2.57690722,7.20371134 2.70556701,7.3756701 L4.60948454,9.9142268 L9.84865979,9.9142268 L7.28536082,0.942680412 C7.22690523,0.737382574 7.26812465,0.516552981 7.39670437,0.346166616 C7.5252841,0.175780251 7.72633598,0.0754639175 7.93979381,0.0754639175 L9.34515464,0.0754639175 C9.58886598,0.0754639175 9.81525773,0.206597938 9.93649485,0.41814433 L15.3624742,9.91298969 L21.84,9.91298969 C22.9905155,9.91298969 23.9257732,10.8482474 23.9257732,11.9987629 C23.9257732,13.1492784 22.9905155,14.0845361 21.84,14.0845361 L15.3624742,14.0845361 L9.93649485,23.5806186 C9.81514939,23.7928394 9.58961759,23.9240065 9.34515464,23.9245361 L9.34515464,23.9245361 Z M8.84164948,22.5637113 L8.95051546,22.5637113 L14.3764948,13.0676289 C14.497732,12.8560825 14.7228866,12.7249485 14.9678351,12.7249485 L21.84,12.7249485 C22.2395876,12.7249485 22.5649485,12.3995876 22.5649485,12 C22.5649485,11.6004124 22.2395876,11.2750515 21.84,11.2750515 L14.9678351,11.2750515 C14.7236281,11.2747763 14.4981559,11.1441156 14.3764948,10.9323711 L8.95051546,1.43628866 L8.84164948,1.43628866 L11.4049485,10.4065979 C11.463404,10.6118958 11.4221846,10.8327254 11.2936049,11.0031117 C11.1650252,11.1734981 10.9639733,11.2737123 10.7505155,11.2738144 L4.26927835,11.2738144 C4.05506757,11.2740096 3.85331881,11.1731352 3.72494845,11.0016495 L1.82103093,8.46309278 L1.69979381,8.46309278 L2.80701031,11.7847423 C2.85402062,11.9245361 2.85402062,12.0754639 2.80701031,12.2152577 L1.69979381,15.5369072 L1.82103093,15.5369072 L3.72494845,12.9983505 C3.85367701,12.8272942 4.05519613,12.7265346 4.26927835,12.7261856 L10.7505155,12.7261856 C10.9639168,12.7264415 11.1648641,12.8266941 11.2934099,12.9970354 C11.4219557,13.1673768 11.4632406,13.3881164 11.4049485,13.5934021 L8.84164948,22.5637113 Z" id="Flight-to"></path></symbol>
  <symbol id="icn-time" viewBox="0 0 36 36"><path d="M18,0.136626506 C27.8501205,0.136626506 35.8633735,8.14987952 35.8633735,18 C35.8633735,27.8501205 27.8501205,35.8633735 18,35.8633735 C8.14987952,35.8633735 0.136626506,27.8501205 0.136626506,18 C0.136626506,8.14987952 8.14987952,0.136626506 18,0.136626506 Z M18,2.52216867 C9.46409639,2.52216867 2.52216867,9.46626506 2.52216867,18 C2.52216867,26.5337349 9.46626506,33.4778313 18,33.4778313 C26.5337349,33.4778313 33.4778313,26.5337349 33.4778313,18 C33.4778313,9.46626506 26.5359036,2.52216867 18,2.52216867 Z M18,4.90337349 C18.6592771,4.90337349 19.1927711,5.43686747 19.1927711,6.09614458 L19.1927711,18 C19.1927711,18.6592771 18.6592771,19.1927711 18,19.1927711 L10.1298795,19.1927711 C9.47060241,19.1927711 8.93710843,18.6592771 8.93710843,18 C8.93710843,17.3407229 9.47060241,16.8072289 10.1298795,16.8072289 L16.8072289,16.8072289 L16.8072289,6.09614458 C16.8072289,5.43686747 17.3407229,4.90337349 18,4.90337349 Z" id="Clock"></path></symbol>
  <symbol id="icn-angle-down" viewBox="0 0 12 8"><path d="M6,5.98053739 L1.04182559,0.82573884 C0.810020067,0.584740708 0.426736973,0.577288625 0.18573884,0.809094149 C-0.0552592924,1.04089967 -0.0627113748,1.42418277 0.169094149,1.6651809 L5.56363428,7.27364993 C5.80183874,7.52130076 6.19816126,7.52130076 6.43636572,7.27364993 L11.8309059,1.6651809 C12.0627114,1.42418277 12.0552593,1.04089967 11.8142612,0.809094149 C11.573263,0.577288625 11.1899799,0.584740708 10.9581744,0.82573884 L6,5.98053739 Z" id="Stroke-1"></path></symbol>
  <symbol id="icn-social-facebook" viewBox="0 0 200 200"><path d="M84.47 159.98h24.35v-58.59h16.43l2.13-20.7h-18.56V68.51c0-4.57 3.03-5.63 5.16-5.63h13.1v-20.1l-18.04-.07c-20.02 0-24.57 14.99-24.57 24.57v13.4H72.89v20.7h11.58v58.6z"/><path d="M100 191.34c-50.37 0-91.34-40.98-91.34-91.34C8.66 49.63 49.63 8.66 100 8.66c50.37 0 91.34 40.98 91.34 91.34 0 50.37-40.97 91.34-91.34 91.34zm0-176.68c-47.06 0-85.34 38.28-85.34 85.34s38.29 85.34 85.34 85.34 85.34-38.29 85.34-85.34S147.06 14.66 100 14.66z"/></symbol>
  <symbol id="icn-social-twitter" viewBox="0 0 200 200"><path d="M154.48 55.35c-4.65 2.76-9.8 4.76-15.28 5.85a23.98 23.98 0 0 0-17.56-7.6c-13.28 0-24.05 10.77-24.05 24.06 0 1.89.21 3.72.62 5.48-20-1.01-37.73-10.58-49.6-25.14a23.963 23.963 0 0 0-3.26 12.1c0 8.34 4.26 15.7 10.71 20.02-3.94-.12-7.65-1.21-10.9-3.01v.31c0 11.65 8.29 21.38 19.3 23.59-2.02.55-4.15.85-6.34.85-1.55 0-3.05-.15-4.53-.44 3.07 9.56 11.95 16.51 22.47 16.71-8.24 6.45-18.6 10.3-29.88 10.3-1.94 0-3.86-.11-5.73-.34 10.65 6.82 23.3 10.8 36.88 10.8 44.25 0 68.45-36.65 68.45-68.45 0-1.04-.02-2.08-.06-3.11 4.69-3.39 8.78-7.63 12-12.45a47.789 47.789 0 0 1-13.82 3.79c4.97-2.98 8.78-7.69 10.58-13.32z"/><path d="M100 191.34c-50.37 0-91.34-40.98-91.34-91.34C8.66 49.63 49.63 8.66 100 8.66c50.37 0 91.34 40.98 91.34 91.34 0 50.37-40.97 91.34-91.34 91.34zm0-176.68c-47.06 0-85.34 38.28-85.34 85.34s38.28 85.34 85.34 85.34 85.34-38.29 85.34-85.34S147.06 14.66 100 14.66z" /></symbol>
  <symbol id="icn-social-youtube" viewBox="0 0 200 200"><path d="M156.78 78.08s-1.13-7.99-4.6-11.5c-4.4-4.61-9.34-4.64-11.6-4.9-16.22-1.17-40.53-1.17-40.53-1.17H100s-24.32 0-40.53 1.17c-2.26.26-7.2.29-11.61 4.9-3.47 3.51-4.6 11.5-4.6 11.5s-1.16 9.38-1.16 18.75v8.79c0 9.38 1.16 18.76 1.16 18.76s1.13 7.98 4.6 11.49c4.41 4.62 10.2 4.47 12.78 4.95 9.27.89 39.39 1.17 39.39 1.17s24.34-.05 40.56-1.21c2.26-.27 7.2-.29 11.6-4.91 3.47-3.51 4.6-11.49 4.6-11.49s1.16-9.38 1.16-18.76v-8.79c0-9.37-1.17-18.75-1.17-18.75zm-68.71 38.2l-.01-32.55 31.3 16.34-31.29 16.21z"/><path d="M100 191.34c-50.37 0-91.34-40.98-91.34-91.34C8.66 49.63 49.63 8.66 100 8.66c50.37 0 91.34 40.98 91.34 91.34 0 50.37-40.97 91.34-91.34 91.34zm0-176.68c-47.06 0-85.34 38.28-85.34 85.34s38.29 85.34 85.34 85.34 85.34-38.29 85.34-85.34S147.06 14.66 100 14.66z"/></symbol>
  <symbol id="icn-social-rss" viewBox="0 0 200 200"><path d="M71.49 139.72c6.71 0 12.16-5.44 12.16-12.16S78.2 115.4 71.49 115.4s-12.16 5.44-12.16 12.16c0 6.71 5.44 12.16 12.16 12.16z"/><path d="M101.99 139.8h17.55c0-33.33-27-60.44-60.2-60.44v17.55c11.39 0 22.1 4.45 30.15 12.55 8.06 8.09 12.5 18.87 12.5 30.34z"/><path d="M133 139.82h17.55c0-50.5-40.9-91.58-91.17-91.58v17.55C99.97 65.79 133 99 133 139.82z"/><path d="M100 191.34c-50.37 0-91.34-40.98-91.34-91.34C8.66 49.63 49.63 8.66 100 8.66s91.34 40.98 91.34 91.34c0 50.37-40.97 91.34-91.34 91.34zm0-176.68c-47.06 0-85.34 38.28-85.34 85.34s38.28 85.34 85.34 85.34 85.34-38.29 85.34-85.34S147.06 14.66 100 14.66z"/></symbol>
  <symbol id="icn-chatbox" viewBox="0 0 200 200"><path d="M54.63 80.57c0-5.76 4.68-10.44 10.44-10.44s10.44 4.68 10.44 10.44-4.68 10.44-10.44 10.44-10.44-4.68-10.44-10.44zM89.02 80.57c0-5.76 4.68-10.44 10.44-10.44s10.44 4.68 10.44 10.44-4.68 10.44-10.44 10.44c-5.75 0-10.44-4.68-10.44-10.44zM124.82 83.2a10.465 10.465 0 0 1 12.74-12.74c3.66.9 6.59 3.83 7.49 7.49a10.465 10.465 0 0 1-12.74 12.74c-3.66-.9-6.59-3.83-7.49-7.49z"/><path class="st0" d="M11.88 180.65c-1.38 0-2.74-.52-3.78-1.51a5.508 5.508 0 0 1-1.29-6.12l14.81-35.26H8.63c-3.04 0-5.5-2.46-5.5-5.5V24.85c0-3.04 2.46-5.5 5.5-5.5h182.73c3.04 0 5.5 2.46 5.5 5.5v111.82c0 3.04-2.46 5.5-5.5 5.5h-98.9l-78.19 37.92c-.76.38-1.58.56-2.39.56zm2.25-53.89H29.9a5.503 5.503 0 0 1 5.07 7.63L22.6 163.83l66.21-32.11c.75-.36 1.57-.55 2.4-.55h94.66V30.35H14.13v96.41z"/></symbol>
</svg>
