<svg xmlns="http://www.w3.org/2000/svg" width="324.39" height="43.5" viewBox="0 0 324.39 43.5">
  <defs>
    <style>
      .cls-1 {
        fill: #f01428;
      }
    </style>
  </defs>
  <title>AC_logo</title>
  <g id="Layer_2" data-name="Layer 2">
    <g id="Layer_1-2" data-name="Layer 1">
      <path id="Shape" d="M110.06,33.71V11.13H120.8c5.68,0,8.31,2.51,8.52,5.65a5.47,5.47,0,0,1-1.22,4,11.24,11.24,0,0,1-3.24,2.51L133,33.92h-5.88l-7.3-9.62h-4.87v9.41Zm4.87-12.34h2.23c5.88,0,7.1-1,7.1-4s-2.64-3.35-6.49-3.35h-2.84Z"/>
      <path id="Shape-2" data-name="Shape" d="M62,33.71l9.53-22.59h5.88l9.53,22.59H81.06l-2.64-6.06H68.29l-2.64,6.06Zm7.5-9H77l-3.85-9Z"/>
      <rect id="Rectangle-path" x="93.63" y="11.13" width="5.07" height="22.59"/>
      <path id="Shape-3" data-name="Shape" d="M169.47,32.88a23.31,23.31,0,0,1-9.12,1.46c-4.26,0-7.71-1-10.14-3.14s-3.65-5-3.65-8.78,1.22-6.9,3.65-8.78c2.43-2.09,5.88-3.14,10.54-3.14a42.36,42.36,0,0,1,8.72.84V15.1A28.85,28.85,0,0,0,161,13.64a9.14,9.14,0,0,0-6.49,2.3,9.23,9.23,0,0,0-2.23,6.48,8.81,8.81,0,0,0,2.43,6.48,9.67,9.67,0,0,0,6.69,2.3,22.51,22.51,0,0,0,8.11-1.67Z"/>
      <path id="Shape-4" data-name="Shape" d="M175.76,33.71l9.53-22.59h5.88l9.53,22.59h-5.88l-2.64-6.06H182l-2.64,6.06Zm7.71-9H191l-3.65-9Z"/>
      <path id="Shape-5" data-name="Shape" d="M239.23,33.71l9.53-22.59h5.88l9.53,22.59h-5.88l-2.64-6.06H245.51l-2.64,6.06Zm7.5-9h7.5l-3.85-9Z"/>
      <path id="Shape-6" data-name="Shape" d="M310.6,15.73l3.85,9H307ZM309,11.13l-9.53,22.59h3.65l2.64-6.06h10.14l2.64,6.06h5.88l-9.53-22.59Z"/>
      <polygon id="Shape-7" data-name="Shape" points="208 33.71 208 11.13 213.88 11.13 227.67 27.23 227.67 11.13 231.93 11.13 231.93 33.71 226.45 33.71 212.26 16.77 212.26 33.71 208 33.71"/>
      <path id="Shape-8" data-name="Shape" d="M271.26,33.71V11.13h10.54a13.27,13.27,0,0,1,8.72,2.72,10.41,10.41,0,0,1,3,7.95c0,3.76-1,6.69-3.24,8.57-2.23,2.09-5.07,3.14-8.92,3.14H271.26Zm5.07-3.14h3.85c2.64,0,4.66-.63,6.08-2.09s2-3.35,2-6.27a9.53,9.53,0,0,0-1.62-5.44A6.21,6.21,0,0,0,284,14.68a12,12,0,0,0-4.46-.63h-3V30.58Z"/>
      <path id="Shape-9" data-name="Shape" class="cls-1" d="M22.31,31c0-1.46.61-1.67,2-.84,2.43,1.46,4.87,2.72,4.87,2.72,0-.84.81-1.46,2.23-1a23.62,23.62,0,0,0,2.84.63s-.81-1.88-1.22-2.72c-.61-1.46,0-2.3.61-2.51,0,0-.81-.63-1.42-1-1.22-.84-1-1.88.2-2.3,1.62-.84,3.85-1.67,3.85-1.67a2.12,2.12,0,0,1-.61-2.93c.81-1.25,2.23-3.14,2.23-3.14H34.07A1.88,1.88,0,0,1,32.24,14S30,15.68,28.39,16.73c-1.42,1-2.64,0-2.43-1.67.41-2.51.61-5.44.61-5.44-.81.84-2.23.63-3-.63-1-2.09-2-4.6-2-4.6s-1,2.51-2,4.6a1.91,1.91,0,0,1-2.84.84s.2,2.93.61,5.44c.2,1.46-1,2.51-2.43,1.46-1.62-1-4.06-2.72-4.06-2.72A2,2,0,0,1,8.92,16.1H5.07S6.49,18,7.3,19.24a2.18,2.18,0,0,1-.61,2.93,34.29,34.29,0,0,0,3.85,1.67c1.22.63,1.62,1.46.2,2.3a10.15,10.15,0,0,1-1.42,1c.81.21,1.42,1,.81,2.51-.41.84-1.22,2.72-1.22,2.72a23.86,23.86,0,0,1,2.84-.63,1.62,1.62,0,0,1,2.23,1s2.43-1.46,4.87-2.72c1.22-.84,2-.42,2,.84v3.56a13.59,13.59,0,0,1-1,5.44A18.66,18.66,0,1,1,40.35,21.33,18.76,18.76,0,0,1,23.72,39.94v2.51A21.27,21.27,0,0,0,21.49,0,21.35,21.35,0,0,0,0,21.12a21.24,21.24,0,0,0,17.44,20.7c1.62.42,2.64.63,3.65,1.67,1-2.09,1.22-6.27,1.22-8.57Z"/>
    </g>
  </g>
</svg>
