<?xml version="1.0" encoding="UTF-8"?>
<svg width="100px" height="100px" viewBox="0 0 100 100" version="1.1" xmlns="http://www.w3.org/2000/svg" xmlns:xlink="http://www.w3.org/1999/xlink">
    <!-- Generator: Sketch 55.2 (78181) - https://sketchapp.com -->
    <title>skytrax-fr</title>
    <desc>Created with Sketch.</desc>
    <defs>
        <linearGradient x1="21.3106652%" y1="69.4944112%" x2="100%" y2="-8.13866079%" id="linearGradient-1">
            <stop stop-color="#C6952C" offset="0%"></stop>
            <stop stop-color="#C6952C" offset="4%"></stop>
            <stop stop-color="#C99B2E" offset="6%"></stop>
            <stop stop-color="#D3AC32" offset="9%"></stop>
            <stop stop-color="#E2C739" offset="12%"></stop>
            <stop stop-color="#E5CC3A" offset="12%"></stop>
            <stop stop-color="#E2C638" offset="13%"></stop>
            <stop stop-color="#D2AB32" offset="15%"></stop>
            <stop stop-color="#C99B2D" offset="18%"></stop>
            <stop stop-color="#C6952C" offset="20%"></stop>
            <stop stop-color="#D0A52B" offset="22%"></stop>
            <stop stop-color="#E6CA29" offset="27%"></stop>
            <stop stop-color="#DBB72A" offset="30%"></stop>
            <stop stop-color="#CC9E2B" offset="34%"></stop>
            <stop stop-color="#C6952C" offset="37%"></stop>
            <stop stop-color="#D0A72D" offset="38%"></stop>
            <stop stop-color="#DBB92D" offset="41%"></stop>
            <stop stop-color="#E2C42E" offset="43%"></stop>
            <stop stop-color="#E4C82E" offset="45%"></stop>
            <stop stop-color="#E3C72E" offset="45%"></stop>
            <stop stop-color="#CEA32D" offset="49%"></stop>
            <stop stop-color="#C6952C" offset="51%"></stop>
            <stop stop-color="#C6952C" offset="100%"></stop>
        </linearGradient>
        <linearGradient x1="19.8925191%" y1="19.6758835%" x2="80.8134942%" y2="80.1320322%" id="linearGradient-2">
            <stop stop-color="#C6952C" offset="0%"></stop>
            <stop stop-color="#CB9D2E" offset="11%"></stop>
            <stop stop-color="#D7B334" offset="28%"></stop>
            <stop stop-color="#E5CC3A" offset="46.645591%"></stop>
            <stop stop-color="#D5B033" offset="64%"></stop>
            <stop stop-color="#CA9C2E" offset="86%"></stop>
            <stop stop-color="#C6952C" offset="100%"></stop>
        </linearGradient>
        <linearGradient x1="30.1607633%" y1="40.2956004%" x2="73.4116529%" y2="57.0127008%" id="linearGradient-3">
            <stop stop-color="#E1E2E3" offset="0%"></stop>
            <stop stop-color="#E8E9E9" offset="8%"></stop>
            <stop stop-color="#FFFFFF" offset="37%"></stop>
            <stop stop-color="#DADBDC" offset="51%"></stop>
            <stop stop-color="#F0F0F1" offset="58%"></stop>
            <stop stop-color="#FFFFFF" offset="64%"></stop>
            <stop stop-color="#FBFBFB" offset="68%"></stop>
            <stop stop-color="#EEEFEF" offset="71%"></stop>
            <stop stop-color="#DADBDC" offset="74%"></stop>
            <stop stop-color="#DFDFE0" offset="75%"></stop>
            <stop stop-color="#EAEBEB" offset="79%"></stop>
            <stop stop-color="#F1F1F1" offset="85%"></stop>
            <stop stop-color="#F3F3F3" offset="100%"></stop>
        </linearGradient>
        <linearGradient x1="56.5937293%" y1="78.0484428%" x2="13.0436571%" y2="25.9013327%" id="linearGradient-4">
            <stop stop-color="#C5C6C8" offset="0%"></stop>
            <stop stop-color="#D7D8D9" offset="2.73279168%"></stop>
            <stop stop-color="#E9E9EA" offset="5%"></stop>
            <stop stop-color="#F6F6F6" offset="9%"></stop>
            <stop stop-color="#FDFDFD" offset="14%"></stop>
            <stop stop-color="#FFFFFF" offset="25%"></stop>
            <stop stop-color="#E1E1E1" offset="39%"></stop>
            <stop stop-color="#CECECE" offset="49%"></stop>
            <stop stop-color="#D3D3D3" offset="51%"></stop>
            <stop stop-color="#F3F3F3" offset="61%"></stop>
            <stop stop-color="#FFFFFF" offset="67%"></stop>
            <stop stop-color="#FCFCFC" offset="75%"></stop>
            <stop stop-color="#F3F3F3" offset="81%"></stop>
            <stop stop-color="#E2E2E3" offset="86%"></stop>
            <stop stop-color="#CCCCCD" offset="91%"></stop>
            <stop stop-color="#B2B2B4" offset="95%"></stop>
            <stop stop-color="#B2B2B4" offset="100%"></stop>
        </linearGradient>
        <linearGradient x1="56.5937293%" y1="73.5656247%" x2="13.0436571%" y2="29.7528813%" id="linearGradient-5">
            <stop stop-color="#C5C6C8" offset="0%"></stop>
            <stop stop-color="#D7D8D9" offset="2.73279168%"></stop>
            <stop stop-color="#E9E9EA" offset="5%"></stop>
            <stop stop-color="#F6F6F6" offset="9%"></stop>
            <stop stop-color="#FDFDFD" offset="14%"></stop>
            <stop stop-color="#FFFFFF" offset="25%"></stop>
            <stop stop-color="#E1E1E1" offset="39%"></stop>
            <stop stop-color="#CECECE" offset="49%"></stop>
            <stop stop-color="#D3D3D3" offset="51%"></stop>
            <stop stop-color="#F3F3F3" offset="61%"></stop>
            <stop stop-color="#FFFFFF" offset="67%"></stop>
            <stop stop-color="#FCFCFC" offset="75%"></stop>
            <stop stop-color="#F3F3F3" offset="81%"></stop>
            <stop stop-color="#E2E2E3" offset="86%"></stop>
            <stop stop-color="#CCCCCD" offset="91%"></stop>
            <stop stop-color="#B2B2B4" offset="95%"></stop>
            <stop stop-color="#B2B2B4" offset="100%"></stop>
        </linearGradient>
        <linearGradient x1="68.5474493%" y1="64.0961584%" x2="16.6830867%" y2="36.4331257%" id="linearGradient-6">
            <stop stop-color="#C5C6C8" offset="0%"></stop>
            <stop stop-color="#D7D8D9" offset="2.73279168%"></stop>
            <stop stop-color="#E9E9EA" offset="5%"></stop>
            <stop stop-color="#F6F6F6" offset="9%"></stop>
            <stop stop-color="#FDFDFD" offset="14%"></stop>
            <stop stop-color="#FFFFFF" offset="25%"></stop>
            <stop stop-color="#E1E1E1" offset="39%"></stop>
            <stop stop-color="#CECECE" offset="49%"></stop>
            <stop stop-color="#D3D3D3" offset="51%"></stop>
            <stop stop-color="#F3F3F3" offset="61%"></stop>
            <stop stop-color="#FFFFFF" offset="67%"></stop>
            <stop stop-color="#FCFCFC" offset="75%"></stop>
            <stop stop-color="#F3F3F3" offset="81%"></stop>
            <stop stop-color="#E2E2E3" offset="86%"></stop>
            <stop stop-color="#CCCCCD" offset="91%"></stop>
            <stop stop-color="#B2B2B4" offset="94.8620866%"></stop>
            <stop stop-color="#B2B2B4" offset="100%"></stop>
        </linearGradient>
        <linearGradient x1="56.5937293%" y1="78.1385582%" x2="13.0436571%" y2="25.8239073%" id="linearGradient-7">
            <stop stop-color="#C5C6C8" offset="0%"></stop>
            <stop stop-color="#D7D8D9" offset="2.73279168%"></stop>
            <stop stop-color="#E9E9EA" offset="5%"></stop>
            <stop stop-color="#F6F6F6" offset="9%"></stop>
            <stop stop-color="#FDFDFD" offset="14%"></stop>
            <stop stop-color="#FFFFFF" offset="25%"></stop>
            <stop stop-color="#E1E1E1" offset="39%"></stop>
            <stop stop-color="#CECECE" offset="49%"></stop>
            <stop stop-color="#D3D3D3" offset="51%"></stop>
            <stop stop-color="#F3F3F3" offset="61%"></stop>
            <stop stop-color="#FFFFFF" offset="67%"></stop>
            <stop stop-color="#FCFCFC" offset="75%"></stop>
            <stop stop-color="#F3F3F3" offset="81%"></stop>
            <stop stop-color="#E2E2E3" offset="86%"></stop>
            <stop stop-color="#CCCCCD" offset="91%"></stop>
            <stop stop-color="#B2B2B4" offset="95%"></stop>
            <stop stop-color="#B2B2B4" offset="100%"></stop>
        </linearGradient>
        <linearGradient x1="56.5937293%" y1="91.0779463%" x2="13.0436571%" y2="14.7066409%" id="linearGradient-8">
            <stop stop-color="#C5C6C8" offset="0%"></stop>
            <stop stop-color="#D7D8D9" offset="2.73279168%"></stop>
            <stop stop-color="#E9E9EA" offset="5%"></stop>
            <stop stop-color="#F6F6F6" offset="9%"></stop>
            <stop stop-color="#FDFDFD" offset="14%"></stop>
            <stop stop-color="#FFFFFF" offset="25%"></stop>
            <stop stop-color="#E1E1E1" offset="39%"></stop>
            <stop stop-color="#CECECE" offset="49%"></stop>
            <stop stop-color="#D3D3D3" offset="51%"></stop>
            <stop stop-color="#F3F3F3" offset="61%"></stop>
            <stop stop-color="#FFFFFF" offset="67%"></stop>
            <stop stop-color="#FCFCFC" offset="75%"></stop>
            <stop stop-color="#F3F3F3" offset="81%"></stop>
            <stop stop-color="#E2E2E3" offset="86%"></stop>
            <stop stop-color="#CCCCCD" offset="91%"></stop>
            <stop stop-color="#B2B2B4" offset="95%"></stop>
            <stop stop-color="#B2B2B4" offset="100%"></stop>
        </linearGradient>
        <linearGradient x1="56.5937293%" y1="86.1471346%" x2="13.0436571%" y2="18.9430969%" id="linearGradient-9">
            <stop stop-color="#C5C6C8" offset="0%"></stop>
            <stop stop-color="#D7D8D9" offset="2.73279168%"></stop>
            <stop stop-color="#E9E9EA" offset="5%"></stop>
            <stop stop-color="#F6F6F6" offset="9%"></stop>
            <stop stop-color="#FDFDFD" offset="14%"></stop>
            <stop stop-color="#FFFFFF" offset="25%"></stop>
            <stop stop-color="#E1E1E1" offset="39%"></stop>
            <stop stop-color="#CECECE" offset="49%"></stop>
            <stop stop-color="#D3D3D3" offset="51%"></stop>
            <stop stop-color="#F3F3F3" offset="61%"></stop>
            <stop stop-color="#FFFFFF" offset="67%"></stop>
            <stop stop-color="#FCFCFC" offset="75%"></stop>
            <stop stop-color="#F3F3F3" offset="81%"></stop>
            <stop stop-color="#E2E2E3" offset="86%"></stop>
            <stop stop-color="#CCCCCD" offset="91%"></stop>
            <stop stop-color="#B2B2B4" offset="95%"></stop>
            <stop stop-color="#B2B2B4" offset="100%"></stop>
        </linearGradient>
        <path d="M8.6646558,7.08368512 C8.6646558,7.08368512 9.3746558,7.08368512 9.5646558,6.66368512 C9.6446558,6.46368512 9.5046558,5.95368512 8.6746558,5.95368512 L3.9946558,5.86368512 C3.9946558,5.86368512 1.8246558,5.86368512 1.1146558,4.34368512 C0.404655795,2.82368512 1.7246558,1.04368512 4.1146558,0.973685118 C6.5046558,0.903685118 11.7646558,0.973685118 11.7646558,0.973685118 L10.0846558,3.11368512 L4.3246558,3.11368512 C4.3246558,3.11368512 3.8546558,3.11368512 3.7846558,3.38368512 C3.74615311,3.47677758 3.75872085,3.58318203 3.8178523,3.66474265 C3.87698375,3.74630328 3.97420596,3.79133323 4.0746558,3.78368512 C4.2146558,3.78368512 8.4446558,3.78368512 8.4446558,3.78368512 C9.57538462,3.72952644 10.6726466,4.17574632 11.4446558,5.00368512 C12.4446558,6.30368512 12.2546558,8.46368512 9.5646558,9.12368512 C8.19849442,9.24993836 6.82534068,9.28334843 5.4546558,9.22368512 L0.914655795,9.22368512 L2.5646558,7.12368512 L8.6646558,7.08368512 Z" id="path-10"></path>
    </defs>
    <g id="Page-1" stroke="none" stroke-width="1" fill="none" fill-rule="evenodd">
        <g id="Skytrax_2019_FR">
            <g id="Badge-2019-FR-EN">
                <g id="Badge-FR-EN">
                    <path d="M50,100 C77.6142375,100 100,77.6142375 100,50 C100,22.3857625 77.6142375,0 50,0 C22.3857625,0 0,22.3857625 0,50 C0,77.6142375 22.3857625,100 50,100 Z M50,97 C24.0426168,97 3,75.9573832 3,50 C3,24.0426168 24.0426168,3 50,3 C75.9573832,3 97,24.0426168 97,50 C97,75.9573832 75.9573832,97 50,97 Z" id="Outside-ring" fill="url(#linearGradient-1)" fill-rule="nonzero"></path>
                    <circle id="Mask" fill="url(#linearGradient-2)" fill-rule="nonzero" cx="50" cy="50" r="44"></circle>
                    <g id="Group" transform="translate(11.000000, 9.000000)">
                        <polygon id="Path" fill="#FFFFFF" fill-rule="nonzero" points="1.2 28.9 1.7 27.6 5.9 28.2 5.9 28.2 2.4 25.8 2.9 24.5 8.1 26.5 7.8 27.3 3.5 25.7 3.5 25.7 7.4 28.4 7.1 29.1 2.4 28.4 2.4 28.4 6.7 30.1 6.4 30.9"></polygon>
                        <polygon id="Path" fill="#FFFFFF" fill-rule="nonzero" points="3.9 22.6 5.3 20 6 20.4 5 22.2 6.3 23 7.3 21.3 7.9 21.6 7 23.4 8.5 24.2 9.6 22.3 10.2 22.7 8.7 25.4"></polygon>
                        <rect id="Rectangle" fill="#FFFFFF" fill-rule="nonzero" transform="translate(8.888775, 19.851170) rotate(-55.532792) translate(-8.888775, -19.851170) " x="8.43880241" y="17.0513406" width="1" height="5.59965887"></rect>
                        <polygon id="Path" fill="#FFFFFF" fill-rule="nonzero" points="7.8 16.5 8.4 15.8 12.1 18.8 13.4 17.2 14 17.7 12.1 20"></polygon>
                        <polygon id="Path" fill="#FFFFFF" fill-rule="nonzero" points="10.8 13 11.4 12.4 14.7 15.9 16.3 14.4 16.8 14.9 14.6 17"></polygon>
                        <polygon id="Path" fill="#FFFFFF" fill-rule="nonzero" points="14.2 9.9 16.5 8.1 17 8.7 15.3 10 16.3 11.2 17.8 10 18.3 10.6 16.7 11.8 17.8 13.2 19.5 11.9 20 12.5 17.6 14.3"></polygon>
                        <path d="M18.8,6.6 L20.8,10.1 C21.2,10.7 21.5,10.8 22,10.6 C22.5,10.3 22.5,9.9 22.2,9.3 L20.2,5.8 L21,5.4 L23,8.8 C23.6,9.9 23.3,10.6 22.4,11.2 C21.5,11.7 20.7,11.6 20.1,10.5 L18.1,7.1 L18.8,6.6 Z" id="Path" fill="#FFFFFF" fill-rule="nonzero"></path>
                        <path d="M22.8,4.5 L24.6,3.8 C25.3,3.5 26,3.6 26.4,4.6 C26.7,5.3 26.6,5.9 26.1,6.2 L26.1,6.2 C26.6,6 27,6.2 27.3,6.9 C27.4,7.2 27.6,7.6 27.8,7.9 C27.9,8.1 28.1,8.2 28.2,8.2 L27.3,8.6 C27.2,8.5 27.1,8.4 27,8.2 C26.8,7.9 26.7,7.6 26.6,7.2 C26.4,6.6 26.1,6.5 25.5,6.7 L24.8,7 L25.7,9.2 L24.9,9.5 L22.8,4.5 Z M25.2,6.2 C25.7,6 25.9,5.5 25.7,5 C25.5,4.5 25.1,4.3 24.6,4.5 L23.9,4.8 L24.6,6.5 L25.2,6.2 Z" id="Shape" fill="#FFFFFF" fill-rule="nonzero"></path>
                        <polygon id="Path" fill="#FFFFFF" fill-rule="nonzero" points="27.8 2.6 30.6 1.8 30.8 2.6 28.8 3.1 29.2 4.6 31.1 4.1 31.3 4.8 29.4 5.3 29.8 7 31.9 6.5 32.1 7.2 29.2 8"></polygon>
                        <path d="M33.7,5.2 L33.7,5.3 C33.8,6 34.1,6.3 34.7,6.2 C35.3,6.1 35.5,5.7 35.4,5.3 C35.3,4.7 35,4.5 34.5,4.4 L33.9,4.3 C33.1,4.1 32.7,3.7 32.6,2.9 C32.5,1.9 33.1,1.3 34.1,1.1 C35.5,0.9 35.8,1.8 35.8,2.4 L35.8,2.5 L34.9,2.6 L34.9,2.5 C34.8,2 34.6,1.7 34,1.8 C33.6,1.8 33.3,2.1 33.4,2.7 C33.5,3.2 33.7,3.4 34.3,3.5 L34.9,3.6 C35.7,3.8 36.1,4.2 36.2,4.9 C36.4,6.1 35.7,6.7 34.6,6.8 C33.2,7 32.8,6.1 32.7,5.3 L32.7,5.2 L33.7,5.2 Z" id="Path" fill="#FFFFFF" fill-rule="nonzero"></path>
                        <path d="M43.6,4.8 L43.6,4.9 C43.5,5.9 43.1,6.9 41.8,6.8 C40.4,6.7 40.1,5.8 40.2,3.8 C40.3,1.8 40.8,0.9 42.2,1.1 C43.8,1.2 43.8,2.4 43.7,3 L43.7,3.1 L42.8,3 L42.8,2.9 C42.8,2.4 42.7,1.8 42.1,1.8 C41.5,1.8 41.1,2.1 41,3.9 C40.9,5.7 41.1,6.2 41.8,6.2 C42.5,6.3 42.7,5.4 42.7,4.9 L42.7,4.8 L43.6,4.8 Z" id="Path" fill="#FFFFFF" fill-rule="nonzero"></path>
                        <path d="M44.9,4.2 C45.3,2.3 46.1,1.5 47.3,1.8 C48.5,2.1 48.9,3.1 48.5,5 C48.1,6.9 47.3,7.7 46.1,7.4 C44.8,7.1 44.5,6.1 44.9,4.2 M47.6,4.7 C48,2.9 47.7,2.5 47.1,2.4 C46.6,2.3 46.1,2.5 45.7,4.3 C45.3,6.2 45.6,6.6 46.1,6.7 C46.7,6.8 47.2,6.6 47.6,4.7" id="Shape" fill="#FFFFFF" fill-rule="nonzero"></path>
                        <polygon id="Path" fill="#FFFFFF" fill-rule="nonzero" points="51.1 2.8 52.3 3.3 51.7 7.5 51.8 7.5 54.1 4 55.4 4.5 53.4 9.7 52.6 9.4 54.3 5 54.3 5 51.5 8.9 50.9 8.7 51.5 4 51.5 3.9 49.8 8.3 49 8"></polygon>
                        <path d="M57.3,5.5 L58.8,6.4 C59.7,6.9 59.8,7.7 59.3,8.6 C58.8,9.5 58,9.7 57.1,9.2 L56.4,8.8 L55.2,10.8 L54.4,10.4 L57.3,5.5 Z M56.8,8.2 L57.3,8.5 C57.7,8.7 58.2,8.7 58.5,8.1 C58.8,7.6 58.8,7.1 58.2,6.8 L57.7,6.5 L56.8,8.2 Z" id="Shape" fill="#FFFFFF" fill-rule="nonzero"></path>
                        <path d="M62.2,8.6 L63.1,9.3 L60.9,14.6 L60.2,14 L60.8,12.7 L59.5,11.7 L58.4,12.6 L57.7,12 L62.2,8.6 Z M61,12.1 L62.1,9.5 L62.1,9.5 L60,11.3 L61,12.1 Z" id="Shape" fill="#FFFFFF" fill-rule="nonzero"></path>
                        <path d="M63.9,16.6 L63.9,16.6 C63.4,16.8 63,16.7 62.5,16.3 C61.6,15.5 62,14.5 63.4,13.1 C64.8,11.7 65.8,11.4 66.7,12.3 C67.7,13.3 67.1,14.2 66.7,14.6 L66.6,14.7 L66,14 L66.1,13.9 C66.4,13.6 66.6,13.1 66.2,12.7 C65.8,12.3 65.2,12.3 64,13.6 C62.7,14.9 62.6,15.4 63.1,15.8 C63.6,16.3 64.1,16.1 64.9,15.2 L64.2,14.6 L64.7,14.1 L66,15.3 L63.9,17.4 L63.4,17 L63.9,16.6 Z" id="Path" fill="#FFFFFF" fill-rule="nonzero"></path>
                        <polygon id="Path" fill="#FFFFFF" fill-rule="nonzero" points="69.1 15 69.8 15.8 67.5 19.6 67.5 19.6 70.8 17.1 71.3 17.8 66.9 21.2 66.2 20.3 68.6 16.5 68.6 16.4 65.2 19.1 64.7 18.4"></polygon>
                        <rect id="Rectangle" fill="#FFFFFF" fill-rule="nonzero" transform="translate(70.211000, 21.238515) rotate(-32.059436) translate(-70.211000, -21.238515) " x="67.4109932" y="20.7885139" width="5.60001369" height="1"></rect>
                        <polygon id="Path" fill="#FFFFFF" fill-rule="nonzero" points="73.7 21.7 75.1 24.4 74.4 24.7 73.5 22.9 72.1 23.6 73 25.3 72.3 25.7 71.4 23.9 69.8 24.7 70.8 26.6 70.1 27 68.8 24.3"></polygon>
                        <path d="M72.4,28.1 L72.3,28.1 C71.7,28.3 71.4,28.7 71.6,29.3 C71.8,29.8 72.3,29.9 72.6,29.8 C73.1,29.6 73.3,29.2 73.3,28.7 L73.3,28.1 C73.3,27.2 73.6,26.8 74.3,26.5 C75.3,26.2 76,26.6 76.4,27.6 C76.9,28.9 76.1,29.4 75.6,29.6 L75.5,29.6 L75.2,28.8 L75.3,28.8 C75.8,28.6 76,28.3 75.8,27.8 C75.7,27.4 75.4,27.2 74.8,27.4 C74.4,27.6 74.2,27.9 74.2,28.5 L74.2,29.1 C74.2,29.9 73.9,30.4 73.2,30.7 C72.1,31.1 71.4,30.6 71,29.6 C70.5,28.3 71.3,27.7 72,27.4 L72.1,27.4 L72.4,28.1 Z" id="Path" fill="#FFFFFF" fill-rule="nonzero"></path>
                        <path d="M11.1,27.3 L11.6,26.5 L17,28.3 L16.6,29 L15.3,28.6 L14.6,29.8 L15.6,30.8 L15.2,31.5 L11.1,27.3 Z M14.6,28.3 L12,27.4 L12,27.4 L14.1,29.3 L14.6,28.3 Z" id="Shape" fill="#FFFFFF" fill-rule="nonzero"></path>
                        <path d="M12.4,22.6 L12.9,22 L13.4,23.2 L13.1,23.6 L12.4,22.6 Z M12.8,24.5 L14.3,22.5 L14.9,22.9 L13.9,24.3 L15.1,25.2 L16.1,23.9 L16.7,24.3 L15.7,25.6 L17.1,26.7 L18.2,25.2 L18.8,25.6 L17.3,27.7 L12.8,24.5 Z" id="Shape" fill="#FFFFFF" fill-rule="nonzero"></path>
                        <path d="M15.2,21.4 L16.3,20.2 C16.7,19.7 17.4,19.6 18.2,20.3 C18.7,20.8 19,21.4 18.7,21.8 L18.7,21.8 C19.1,21.5 19.4,21.5 20,22 C20.3,22.2 20.6,22.5 20.9,22.7 C21.1,22.9 21.3,22.9 21.4,22.9 L20.8,23.5 C20.7,23.5 20.5,23.4 20.4,23.3 C20.1,23.1 19.9,22.9 19.6,22.6 C19.1,22.2 18.8,22.1 18.5,22.5 L18.1,23 L19.9,24.6 L19.4,25.1 L15.2,21.4 Z M18,22.1 C18.3,21.7 18.2,21.3 17.8,20.9 C17.4,20.5 17,20.4 16.7,20.8 L16.3,21.3 L17.6,22.5 L18,22.1 Z" id="Shape" fill="#FFFFFF" fill-rule="nonzero"></path>
                        <rect id="Rectangle" fill="#FFFFFF" fill-rule="nonzero" transform="translate(20.375375, 20.167775) rotate(-42.430551) translate(-20.375375, -20.167775) " x="20.025373" y="17.3677586" width="1" height="5.60003276"></rect>
                        <polygon id="Path" fill="#FFFFFF" fill-rule="nonzero" points="19.8 16.9 21.8 15.3 22.3 15.9 20.9 17 21.8 18.2 23.1 17.2 23.6 17.8 22.3 18.8 23.4 20.2 24.8 19.1 25.3 19.7 23.2 21.3"></polygon>
                        <polygon id="Path" fill="#FFFFFF" fill-rule="nonzero" points="23.1 14.4 23.9 14 27.1 16.9 27.2 16.9 25.1 13.3 25.7 13 28.5 17.8 27.7 18.2 24.4 15.2 24.4 15.2 26.5 18.9 25.9 19.3"></polygon>
                        <polygon id="Path" fill="#FFFFFF" fill-rule="nonzero" points="27.3 12.2 28.2 11.9 30.9 15.2 30.9 15.2 29.4 11.4 30.1 11.1 32.1 16.3 31.3 16.6 28.5 13.1 28.4 13.2 30 17.1 29.3 17.4"></polygon>
                        <polygon id="Path" fill="#FFFFFF" fill-rule="nonzero" points="31.8 10.6 34.2 10.1 34.4 10.8 32.7 11.2 33 12.7 34.7 12.3 34.8 13 33.2 13.4 33.6 15.1 35.4 14.7 35.5 15.5 33 16"></polygon>
                        <path d="M36.7,13.6 L36.7,13.7 C36.8,14.4 37,14.7 37.5,14.7 C38,14.7 38.2,14.2 38.1,13.8 C38.1,13.2 37.8,13 37.4,12.9 L36.9,12.7 C36.2,12.4 35.9,12 35.8,11.3 C35.7,10.3 36.2,9.7 37.1,9.6 C38.3,9.5 38.5,10.4 38.5,11 L38.5,11.1 L37.8,11.2 L37.8,11.1 C37.8,10.6 37.5,10.3 37.1,10.4 C36.8,10.4 36.5,10.7 36.5,11.2 C36.5,11.7 36.8,11.9 37.3,12.1 L37.8,12.3 C38.5,12.5 38.8,12.9 38.9,13.7 C39,14.9 38.4,15.4 37.5,15.5 C36.4,15.6 36,14.7 36,13.9 L36,13.8 L36.7,13.6 Z" id="Path" fill="#FFFFFF" fill-rule="nonzero"></path>
                        <path d="M43.1,9.8 L44,9.9 L44.5,15.6 L43.7,15.5 L43.6,14.1 L42.3,14 L41.8,15.3 L41,15.2 L43.1,9.8 Z M43.6,13.4 L43.4,10.6 L43.4,10.6 L42.5,13.2 L43.6,13.4 Z" id="Shape" fill="#FFFFFF" fill-rule="nonzero"></path>
                        <path d="M47.2,10.6 L46.1,14.4 C45.9,15.1 46,15.4 46.5,15.6 C46.9,15.7 47.2,15.5 47.4,14.8 L48.5,11 L49.2,11.2 L48.1,15 C47.7,16.2 47.1,16.5 46.2,16.3 C45.3,16 45,15.4 45.3,14.2 L46.4,10.4 L47.2,10.6 Z" id="Path" fill="#FFFFFF" fill-rule="nonzero"></path>
                        <polygon id="Path" fill="#FFFFFF" fill-rule="nonzero" points="53 12.8 54 13.4 52.6 17.3 52.7 17.4 55.4 14.2 56.4 14.8 53.6 19.6 53 19.2 55.3 15.2 55.3 15.2 52.2 18.7 51.6 18.4 53.2 14 53.1 14 50.8 18 50.2 17.6"></polygon>
                        <path d="M56,17.9 C57.3,16.4 58.2,16 59,16.6 C59.8,17.3 59.6,18.3 58.4,19.8 C57.1,21.3 56.2,21.8 55.4,21.1 C54.6,20.5 54.8,19.5 56,17.9 M57.9,19.4 C59.1,17.9 59,17.5 58.7,17.2 C58.4,16.9 57.9,17 56.7,18.4 C55.5,19.9 55.6,20.4 55.9,20.6 C56.2,20.9 56.7,20.9 57.9,19.4" id="Shape" fill="#FFFFFF" fill-rule="nonzero"></path>
                        <polygon id="Path" fill="#FFFFFF" fill-rule="nonzero" points="61.3 18.8 62 19.4 59.9 23.3 59.9 23.3 62.9 20.4 63.4 20.9 59.4 24.8 58.7 24.1 60.9 20.2 60.9 20.2 57.8 23.1 57.3 22.6"></polygon>
                        <path d="M64.5,22.2 L65.3,23.3 C66.2,24.5 65.4,25.3 64.1,26.3 C62.8,27.3 61.8,27.8 60.9,26.7 L60,25.5 L64.5,22.2 Z M61,25.7 L61.4,26.2 C61.8,26.7 62.3,26.6 63.6,25.6 C64.9,24.7 65.2,24.2 64.8,23.6 L64.4,23.1 L61,25.7 Z" id="Shape" fill="#FFFFFF" fill-rule="nonzero"></path>
                        <polygon id="Path" fill="#FFFFFF" fill-rule="nonzero" points="67 25.8 68.3 28 67.7 28.4 66.8 26.9 65.4 27.6 66.3 29.1 65.7 29.5 64.8 28 63.3 28.9 64.2 30.5 63.6 30.9 62.3 28.7"></polygon>
                        <polygon id="Path" fill="#030303" fill-rule="nonzero" points="1.1 28.7 1.6 27.4 5.7 28 5.8 28 2.3 25.6 2.7 24.4 7.9 26.4 7.6 27.1 3.3 25.5 3.3 25.5 7.2 28.2 7 28.9 2.2 28.2 2.2 28.3 6.5 29.9 6.2 30.7"></polygon>
                        <polygon id="Path" fill="#030303" fill-rule="nonzero" points="3.7 22.5 5.2 19.9 5.8 20.2 4.8 22.1 6.1 22.8 7.1 21.1 7.8 21.5 6.8 23.2 8.3 24 9.4 22.2 10 22.5 8.6 25.2"></polygon>
                        <rect id="Rectangle" fill="#030303" fill-rule="nonzero" transform="translate(8.680615, 19.679970) rotate(-55.532792) translate(-8.680615, -19.679970) " x="8.23064241" y="16.8801406" width="1" height="5.59965887"></rect>
                        <polygon id="Path" fill="#030303" fill-rule="nonzero" points="7.6 16.3 8.2 15.6 11.9 18.7 13.3 17 13.8 17.5 11.9 19.8"></polygon>
                        <polygon id="Path" fill="#030303" fill-rule="nonzero" points="10.6 12.9 11.2 12.3 14.6 15.7 16.1 14.2 16.6 14.8 14.5 16.9"></polygon>
                        <polygon id="Path" fill="#030303" fill-rule="nonzero" points="14 9.7 16.3 7.9 16.8 8.5 15.1 9.8 16.1 11 17.6 9.8 18.1 10.4 16.5 11.6 17.6 13 19.3 11.7 19.8 12.3 17.4 14.1"></polygon>
                        <path d="M18.6,6.4 L20.6,9.9 C21,10.5 21.3,10.6 21.8,10.4 C22.3,10.1 22.3,9.7 22,9.1 L20,5.6 L20.8,5.2 L22.8,8.6 C23.4,9.7 23.1,10.4 22.2,11 C21.3,11.5 20.5,11.4 19.9,10.3 L17.9,6.9 L18.6,6.4 Z" id="Path" fill="#030303" fill-rule="nonzero"></path>
                        <path d="M22.6,4.3 L24.4,3.6 C25.1,3.3 25.8,3.4 26.2,4.4 C26.5,5.1 26.4,5.7 25.9,6 L25.9,6 C26.4,5.8 26.8,6 27.1,6.7 C27.2,7 27.4,7.4 27.6,7.7 C27.7,7.9 27.9,8 28,8 L27.1,8.4 C27,8.3 26.9,8.2 26.8,8 C26.6,7.7 26.5,7.4 26.4,7 C26.2,6.4 25.9,6.3 25.3,6.5 L24.6,6.8 L25.5,9 L24.7,9.3 L22.6,4.3 Z M25,6 C25.5,5.8 25.7,5.4 25.5,4.8 C25.3,4.3 24.9,4.1 24.4,4.3 L23.7,4.6 L24.4,6.3 L25,6 Z" id="Shape" fill="#030303" fill-rule="nonzero"></path>
                        <polygon id="Path" fill="#030303" fill-rule="nonzero" points="27.6 2.4 30.5 1.7 30.7 2.4 28.6 2.9 29 4.4 30.9 3.9 31.1 4.6 29.2 5.1 29.7 6.8 31.8 6.3 31.9 7 29 7.8"></polygon>
                        <path d="M33.5,5 L33.5,5.1 C33.6,5.8 33.9,6.1 34.5,6 C35,5.9 35.3,5.5 35.2,5.1 C35.1,4.5 34.8,4.3 34.3,4.2 L33.7,4.1 C32.9,3.9 32.5,3.5 32.4,2.7 C32.3,1.7 32.9,1.1 33.9,0.9 C35.3,0.7 35.6,1.6 35.6,2.2 L35.6,2.3 L34.7,2.4 L34.7,2.3 C34.6,1.8 34.4,1.5 33.8,1.6 C33.4,1.6 33.1,1.9 33.2,2.5 C33.3,3 33.5,3.2 34.1,3.3 L34.7,3.4 C35.5,3.6 35.9,4 36,4.7 C36.2,5.9 35.5,6.5 34.4,6.6 C33,6.8 32.6,5.9 32.5,5.1 L32.5,5 L33.5,5 Z" id="Path" fill="#030303" fill-rule="nonzero"></path>
                        <path d="M43.4,4.6 L43.4,4.7 C43.3,5.7 42.9,6.7 41.6,6.6 C40.2,6.5 39.9,5.6 40,3.6 C40.1,1.6 40.6,0.7 42,0.9 C43.6,1 43.6,2.2 43.5,2.8 L43.5,2.9 L42.6,2.8 L42.6,2.7 C42.6,2.2 42.5,1.6 41.9,1.6 C41.3,1.6 40.9,1.9 40.8,3.7 C40.7,5.5 40.9,6 41.6,6 C42.3,6.1 42.5,5.2 42.5,4.7 L42.5,4.6 L43.4,4.6 Z" id="Path" fill="#030303" fill-rule="nonzero"></path>
                        <path d="M44.7,4 C45.1,2.1 45.9,1.3 47.1,1.6 C48.3,1.9 48.7,2.9 48.3,4.8 C47.9,6.7 47.1,7.5 45.9,7.2 C44.7,6.9 44.3,5.9 44.7,4 M47.4,4.5 C47.8,2.7 47.5,2.3 46.9,2.2 C46.4,2.1 45.9,2.3 45.5,4.1 C45.1,6 45.4,6.4 45.9,6.5 C46.6,6.7 47,6.4 47.4,4.5" id="Shape" fill="#030303" fill-rule="nonzero"></path>
                        <polygon id="Path" fill="#030303" fill-rule="nonzero" points="50.9 2.6 52.2 3.1 51.6 7.3 51.6 7.3 54 3.8 55.2 4.3 53.2 9.5 52.4 9.2 54.1 4.9 54.1 4.9 51.4 8.8 50.7 8.5 51.3 3.8 51.3 3.8 49.6 8.1 48.9 7.8"></polygon>
                        <path d="M57.2,5.3 L58.7,6.2 C59.6,6.7 59.7,7.5 59.2,8.4 C58.7,9.3 57.9,9.5 57,9 L56.3,8.6 L55.1,10.6 L54.3,10.2 L57.2,5.3 Z M56.6,8 L57.1,8.3 C57.5,8.5 58,8.5 58.3,7.9 C58.6,7.4 58.6,6.9 58,6.6 L57.5,6.3 L56.6,8 Z" id="Shape" fill="#030303" fill-rule="nonzero"></path>
                        <path d="M62,8.4 L62.9,9.1 L60.7,14.4 L60,13.8 L60.5,12.5 L59.2,11.5 L58.1,12.4 L57.4,11.8 L62,8.4 Z M60.8,11.9 L61.9,9.3 L61.9,9.3 L59.7,11.1 L60.8,11.9 Z" id="Shape" fill="#030303" fill-rule="nonzero"></path>
                        <path d="M63.7,16.4 L63.7,16.4 C63.2,16.6 62.8,16.5 62.3,16.1 C61.4,15.3 61.8,14.3 63.2,12.9 C64.6,11.5 65.6,11.2 66.5,12.1 C67.5,13.1 66.9,14 66.5,14.4 L66.4,14.5 L65.8,13.9 L65.9,13.8 C66.2,13.5 66.4,13 66,12.6 C65.6,12.2 65,12.2 63.8,13.5 C62.5,14.8 62.4,15.3 62.9,15.7 C63.4,16.2 63.9,16 64.7,15.1 L64,14.5 L64.5,14 L65.8,15.2 L63.7,17.3 L63.2,16.8 L63.7,16.4 Z" id="Path" fill="#030303" fill-rule="nonzero"></path>
                        <polygon id="Path" fill="#030303" fill-rule="nonzero" points="68.9 14.8 69.6 15.7 67.3 19.5 67.3 19.5 70.6 16.9 71.1 17.6 66.7 21 66 20.1 68.4 16.3 68.4 16.3 65 18.9 64.5 18.2"></polygon>
                        <rect id="Rectangle" fill="#030303" fill-rule="nonzero" transform="translate(70.002840, 21.054275) rotate(-32.059436) translate(-70.002840, -21.054275) " x="67.2028332" y="20.6042739" width="5.60001369" height="1"></rect>
                        <polygon id="Path" fill="#030303" fill-rule="nonzero" points="73.6 21.6 74.9 24.2 74.2 24.5 73.3 22.7 71.9 23.4 72.8 25.1 72.1 25.5 71.2 23.7 69.7 24.5 70.6 26.4 70 26.8 68.6 24.1"></polygon>
                        <path d="M72.3,27.9 L72.2,27.9 C71.6,28.1 71.3,28.5 71.5,29.1 C71.7,29.6 72.2,29.7 72.5,29.6 C73.1,29.4 73.2,29 73.2,28.5 L73.2,27.9 C73.2,27 73.5,26.6 74.2,26.3 C75.2,26 75.9,26.4 76.3,27.4 C76.8,28.7 76,29.2 75.5,29.4 L75.4,29.4 L75,28.6 L75.1,28.6 C75.6,28.4 75.8,28.1 75.6,27.6 C75.5,27.2 75.1,27 74.6,27.2 C74.2,27.4 74,27.7 74,28.3 L74,28.9 C74,29.7 73.7,30.2 73,30.5 C71.9,30.9 71.2,30.4 70.8,29.4 C70.3,28.1 71.1,27.5 71.8,27.2 L71.9,27.2 L72.3,27.9 Z" id="Path" fill="#030303" fill-rule="nonzero"></path>
                        <path d="M10.9,27.2 L11.4,26.4 L16.8,28.2 L16.4,28.9 L15.1,28.5 L14.4,29.7 L15.4,30.7 L15,31.1 L10.9,27.2 Z M14.4,28.1 L11.8,27.2 L11.8,27.2 L13.9,29.1 L14.4,28.1 Z" id="Shape" fill="#030303" fill-rule="nonzero"></path>
                        <path d="M12.3,22.5 L12.8,21.9 L13.3,23.1 L13,23.5 L12.3,22.5 Z M12.7,24.4 L14.2,22.4 L14.8,22.8 L13.8,24.2 L15,25.1 L16,23.8 L16.6,24.2 L15.6,25.5 L17,26.6 L18.1,25.1 L18.7,25.5 L17.2,27.6 L12.7,24.4 Z" id="Shape" fill="#030303" fill-rule="nonzero"></path>
                        <path d="M15.1,21.2 L16.2,20 C16.6,19.5 17.3,19.4 18.1,20.1 C18.6,20.6 18.9,21.2 18.6,21.6 L18.6,21.6 C19,21.3 19.3,21.3 19.9,21.8 C20.2,22 20.5,22.3 20.8,22.5 C21,22.7 21.2,22.7 21.3,22.7 L20.7,23.3 C20.6,23.3 20.4,23.2 20.3,23.1 C20,22.9 19.8,22.7 19.5,22.4 C19,22 18.7,21.9 18.4,22.3 L18,22.7 L19.8,24.3 L19.2,25 L15.1,21.2 Z M17.8,21.9 C18.1,21.6 18,21.1 17.6,20.7 C17.2,20.3 16.8,20.2 16.5,20.6 L16.1,21.1 L17.4,22.3 L17.8,21.9 Z" id="Shape" fill="#030303" fill-rule="nonzero"></path>
                        <rect id="Rectangle" fill="#030303" fill-rule="nonzero" transform="translate(20.166015, 19.989095) rotate(-42.430551) translate(-20.166015, -19.989095) " x="19.816013" y="17.1890786" width="1" height="5.60003276"></rect>
                        <polygon id="Path" fill="#030303" fill-rule="nonzero" points="19.7 16.7 21.7 15.2 22.1 15.7 20.7 16.8 21.6 18.1 23 17 23.4 17.6 22.1 18.6 23.2 20.1 24.6 18.9 25.1 19.5 23 21.1"></polygon>
                        <polygon id="Path" fill="#030303" fill-rule="nonzero" points="22.9 14.3 23.7 13.8 27 16.7 27 16.7 24.9 13.1 25.5 12.8 28.3 17.6 27.5 18.1 24.2 15.1 24.2 15.1 26.3 18.7 25.7 19.1"></polygon>
                        <polygon id="Path" fill="#030303" fill-rule="nonzero" points="27.1 12 28 11.7 30.7 15.1 30.8 15.1 29.3 11.2 29.9 10.9 31.9 16.1 31.1 16.4 28.3 13 28.3 13 29.8 16.9 29.2 17.2"></polygon>
                        <polygon id="Path" fill="#030303" fill-rule="nonzero" points="31.6 10.4 34.1 9.9 34.2 10.6 32.5 11 32.9 12.5 34.5 12.1 34.6 12.9 33 13.2 33.4 15 35.2 14.6 35.4 15.3 32.9 15.9"></polygon>
                        <path d="M36.5,13.4 L36.5,13.5 C36.6,14.2 36.8,14.5 37.3,14.5 C37.8,14.5 38,14 37.9,13.6 C37.9,13 37.6,12.8 37.2,12.7 L36.7,12.5 C36,12.2 35.7,11.8 35.6,11.1 C35.5,10.1 36,9.5 36.9,9.4 C38.1,9.3 38.3,10.2 38.3,10.8 L38.3,10.9 L37.7,11 L37.7,10.9 C37.7,10.4 37.4,10.1 37,10.2 C36.7,10.2 36.4,10.5 36.4,11 C36.4,11.5 36.7,11.7 37.2,11.9 L37.7,12.1 C38.4,12.3 38.7,12.7 38.8,13.5 C38.9,14.7 38.3,15.2 37.4,15.3 C36.3,15.4 35.9,14.5 35.9,13.7 L35.9,13.6 L36.5,13.4 Z" id="Path" fill="#030303" fill-rule="nonzero"></path>
                        <path d="M42.9,9.7 L43.8,9.8 L44.3,15.5 L43.5,15.4 L43.5,14 L42.2,13.8 L41.7,15.1 L40.9,15 L42.9,9.7 Z M43.4,13.2 L43.2,10.4 L43.2,10.4 L42.3,13 L43.4,13.2 Z" id="Shape" fill="#030303" fill-rule="nonzero"></path>
                        <path d="M47.1,10.5 L46,14.3 C45.8,15 45.9,15.3 46.4,15.5 C46.8,15.6 47.1,15.4 47.3,14.7 L48.4,10.9 L49.1,11.1 L48,14.8 C47.6,16 47,16.3 46.1,16.1 C45.2,15.8 44.9,15.2 45.2,14 L46.3,10.2 L47.1,10.5 Z" id="Path" fill="#030303" fill-rule="nonzero"></path>
                        <polygon id="Path" fill="#030303" fill-rule="nonzero" points="52.8 12.6 53.8 13.2 52.5 17.2 52.5 17.2 55.3 14 56.2 14.6 53.4 19.4 52.8 19 55.2 15 55.1 15 52 18.6 51.5 18.3 53 13.8 53 13.8 50.6 17.8 50 17.4"></polygon>
                        <path d="M55.9,17.8 C57.2,16.3 58.1,15.9 58.9,16.5 C59.7,17.2 59.5,18.2 58.3,19.7 C57,21.2 56.1,21.7 55.3,21 C54.4,20.3 54.6,19.3 55.9,17.8 M57.7,19.2 C58.9,17.7 58.8,17.3 58.5,17 C58.2,16.7 57.7,16.8 56.5,18.2 C55.3,19.7 55.4,20.2 55.7,20.4 C56,20.7 56.5,20.7 57.7,19.2" id="Shape" fill="#030303" fill-rule="nonzero"></path>
                        <polygon id="Path" fill="#030303" fill-rule="nonzero" points="61.2 18.6 61.8 19.3 59.7 23.1 59.7 23.1 62.7 20.3 63.2 20.8 59.2 24.6 58.6 23.9 60.7 20 60.7 20 57.6 23 57.1 22.4"></polygon>
                        <path d="M64.3,22 L65.1,23.1 C66,24.3 65.2,25.1 63.9,26.1 C62.6,27.1 61.6,27.6 60.7,26.5 L59.9,25.4 L64.3,22 Z M60.8,25.6 L61.2,26.1 C61.6,26.6 62.1,26.5 63.4,25.5 C64.7,24.6 65,24.1 64.6,23.5 L64.2,23 L60.8,25.6 Z" id="Shape" fill="#030303" fill-rule="nonzero"></path>
                        <polygon id="Path" fill="#030303" fill-rule="nonzero" points="66.9 25.7 68.1 27.8 67.5 28.2 66.6 26.7 65.3 27.5 66.1 28.9 65.5 29.3 64.6 27.8 63.1 28.8 64 30.3 63.4 30.7 62.1 28.5"></polygon>
                        <polygon id="Path" fill="#FFFFFF" fill-rule="nonzero" points="7.6 52.9 8.1 54 2.2 56.8 3.5 59.4 2.6 59.9 0.8 56.2"></polygon>
                        <path d="M11.9,60.3 L12.8,61.5 L8,67.7 L7.2,66.7 L8.4,65.2 L7.1,63.5 L5.3,64.3 L4.5,63.3 L11.9,60.3 Z M9.1,64.5 L11.5,61.5 L11.5,61.5 L8,63.1 L9.1,64.5 Z" id="Shape" fill="#FFFFFF" fill-rule="nonzero"></path>
                        <path d="M16.9,65.8 L13.4,70 C12.8,70.7 12.8,71.3 13.4,71.8 C13.9,72.3 14.5,72.2 15.1,71.4 L18.6,67.2 L19.5,68 L16.1,72 C15,73.4 13.9,73.3 12.8,72.4 C11.7,71.5 11.4,70.4 12.6,69.1 L16,65 L16.9,65.8 Z" id="Path" fill="#FFFFFF" fill-rule="nonzero"></path>
                        <path d="M22.4,69.8 L24.8,71 C25.7,71.5 26.3,72.3 25.6,73.6 C25.2,74.5 24.4,75 23.7,74.7 L23.7,74.7 C24.3,75.1 24.5,75.6 24.1,76.6 C23.9,77 23.6,77.6 23.4,78 C23.3,78.3 23.3,78.6 23.4,78.7 L22.2,78.1 C22.2,77.9 22.2,77.7 22.3,77.4 C22.5,77 22.7,76.6 22.9,76.1 C23.3,75.3 23.2,74.9 22.5,74.5 L21.6,74.1 L20,77.1 L19,76.6 L22.4,69.8 Z M22.8,73.8 C23.5,74.1 24.1,73.9 24.4,73.2 C24.8,72.5 24.6,71.9 23.9,71.6 L23,71.1 L21.9,73.3 L22.8,73.8 Z" id="Shape" fill="#FFFFFF" fill-rule="nonzero"></path>
                        <path d="M29.6,72.9 L33.5,73.9 L33.3,74.9 L30.5,74.2 L30,76.2 L32.6,76.8 L32.4,77.8 L29.8,77.2 L29.2,79.6 L32.1,80.3 L31.9,81.3 L27.9,80.3 L29.6,72.9 Z M32.1,71.5 L33.3,71.8 L31.9,73 L31.1,72.8 L32.1,71.5 Z" id="Shape" fill="#FFFFFF" fill-rule="nonzero"></path>
                        <path d="M38.2,74.3 L39.7,74.3 L41.5,81.9 L40.3,81.9 L39.9,80 L37.7,80 L37.2,81.9 L36,81.9 L38.2,74.3 Z M39.8,79.1 L39,75.3 L39,75.3 L38,79 L39.8,79.1 Z" id="Shape" fill="#FFFFFF" fill-rule="nonzero"></path>
                        <polygon id="Path" fill="#FFFFFF" fill-rule="nonzero" points="45.4 74.9 43.7 75.2 43.5 74.2 48.1 73.3 48.3 74.3 46.6 74.6 47.8 81.1 46.6 81.3"></polygon>
                        <path d="M63,74.7 L59.3,77 C57.6,74.2 60.3,72.7 59.1,70.7 C58.8,70.2 58.3,69.9 57.7,70.2 C56.9,70.7 57.2,71.4 57.6,72.1 L56.6,72.7 C55.8,71.4 55.9,70.3 57.2,69.5 C58.5,68.7 59.5,69.2 60,70.1 C61.3,72.2 59.3,73.6 59.8,75.5 L62.4,73.9 L63,74.7 Z" id="Path" fill="#FFFFFF" fill-rule="nonzero"></path>
                        <path d="M63.1,65 C64.1,64 65.3,64.1 67.4,66.3 C69.4,68.4 69.5,69.6 68.4,70.6 C67.4,71.6 66.2,71.5 64.1,69.3 C62.1,67.2 62.1,66 63.1,65 M67.8,69.9 C68.4,69.3 68,68.6 66.5,67 C65,65.4 64.3,65 63.7,65.5 C63.1,66.1 63.5,66.8 65,68.4 C66.5,70.1 67.2,70.5 67.8,69.9" id="Shape" fill="#FFFFFF" fill-rule="nonzero"></path>
                        <path d="M73.9,63.9 L69.4,60.8 L68.5,62.1 L67.9,61.7 L68,61.6 C68.4,61 68.7,60.2 68.1,59.5 L68,59.4 L68.5,58.7 L74.7,63 L73.9,63.9 Z" id="Path" fill="#FFFFFF" fill-rule="nonzero"></path>
                        <polygon id="Path" fill="#221F1F" fill-rule="nonzero" points="7.2 52.9 7.8 54 1.8 56.9 3.1 59.5 2.2 59.9 0.4 56.2"></polygon>
                        <path d="M11.5,60.3 L12.4,61.5 L7.6,67.7 L6.8,66.7 L8,65.2 L6.7,63.5 L4.9,64.3 L4.1,63.3 L11.5,60.3 Z M8.7,64.5 L11.1,61.5 L11.1,61.5 L7.6,63.1 L8.7,64.5 Z" id="Shape" fill="#221F1F" fill-rule="nonzero"></path>
                        <path d="M16.5,65.8 L13,70 C12.4,70.7 12.4,71.3 13,71.8 C13.5,72.3 14.1,72.2 14.7,71.4 L18.2,67.2 L19.1,68 L15.7,72 C14.6,73.4 13.5,73.3 12.4,72.4 C11.3,71.5 11,70.4 12.2,69.1 L15.6,65 L16.5,65.8 Z" id="Path" fill="#221F1F" fill-rule="nonzero"></path>
                        <path d="M22,69.8 L24.4,71 C25.3,71.5 25.9,72.3 25.2,73.6 C24.8,74.5 24,75 23.3,74.7 L23.3,74.7 C23.9,75.1 24.1,75.6 23.7,76.6 C23.5,77 23.2,77.6 23,78 C22.9,78.3 22.9,78.6 23,78.7 L21.8,78.1 C21.8,77.9 21.8,77.7 21.9,77.4 C22.1,77 22.3,76.6 22.5,76.1 C22.9,75.3 22.8,74.9 22.1,74.5 L21.2,74.1 L19.7,77 L18.6,76.5 L22,69.8 Z M22.4,73.8 C23.1,74.1 23.7,73.9 24,73.2 C24.4,72.5 24.2,71.9 23.5,71.6 L22.6,71.1 L21.5,73.3 L22.4,73.8 Z" id="Shape" fill="#221F1F" fill-rule="nonzero"></path>
                        <path d="M29.2,72.9 L33.1,73.9 L32.9,74.9 L30.1,74.2 L29.6,76.2 L32.2,76.8 L32,77.8 L29.4,77.2 L28.8,79.6 L31.7,80.3 L31.5,81.3 L27.5,80.3 L29.2,72.9 Z M31.7,71.5 L32.9,71.8 L31.5,73 L30.7,72.8 L31.7,71.5 Z" id="Shape" fill="#221F1F" fill-rule="nonzero"></path>
                        <path d="M37.9,74.3 L39.4,74.3 L41.2,81.9 L40,81.9 L39.6,80 L37.4,80 L36.9,81.9 L35.7,81.9 L37.9,74.3 Z M39.4,79.1 L38.6,75.3 L38.6,75.3 L37.6,79 L39.4,79.1 Z" id="Shape" fill="#221F1F" fill-rule="nonzero"></path>
                        <polygon id="Path" fill="#221F1F" fill-rule="nonzero" points="45 74.9 43.3 75.2 43.1 74.2 47.8 73.3 47.9 74.3 46.2 74.6 47.4 81.1 46.3 81.3"></polygon>
                        <path d="M62.6,74.7 L58.9,77 C57.2,74.2 59.9,72.7 58.7,70.7 C58.4,70.2 57.9,69.9 57.3,70.2 C56.5,70.7 56.8,71.4 57.2,72.1 L56.2,72.7 C55.4,71.4 55.5,70.3 56.8,69.5 C58.1,68.7 59.1,69.2 59.6,70.1 C60.9,72.2 58.9,73.6 59.4,75.5 L62,73.9 L62.6,74.7 Z" id="Path" fill="#221F1F" fill-rule="nonzero"></path>
                        <path d="M62.7,65 C63.7,64 64.9,64.1 67,66.3 C69,68.4 69.1,69.6 68,70.6 C67,71.6 65.8,71.5 63.7,69.3 C61.7,67.2 61.7,66 62.7,65 M67.4,69.9 C68,69.3 67.6,68.6 66.1,67 C64.6,65.4 63.9,65 63.3,65.5 C62.7,66.1 63.1,66.8 64.6,68.4 C66.1,70.1 66.8,70.5 67.4,69.9" id="Shape" fill="#221F1F" fill-rule="nonzero"></path>
                        <path d="M73.5,63.9 L69,60.8 L68.1,62.1 L67.5,61.7 L67.6,61.6 C68,61 68.3,60.2 67.7,59.5 L67.6,59.4 L68.1,58.7 L74.3,63 L73.5,63.9 Z" id="Path" fill="#221F1F" fill-rule="nonzero"></path>
                        <path d="M71.8,53.7 C72.1,53 72.8,53.1 73.9,53.7 C74.8,54.2 75,54.7 74.7,55.3 C74.4,55.9 73.8,55.9 72.9,55.4 C71.9,54.8 71.5,54.3 71.8,53.7 Z M76.1,56.9 L75.6,57.8 C75.6,57.8 75.6,57.8 75.7,57.8 C76.6,58.3 77.5,58 78,57 C78.4,56.3 78.4,55.6 78,55.1 C77.6,54.5 76.7,54 75.5,53.3 C73.2,52.1 72,51.8 71.2,53.3 C70.5,54.5 71,55.4 72.5,56.2 C73.9,57 74.9,56.8 75.5,55.7 C75.7,55.3 75.7,54.8 75.5,54.4 C75.6,54.5 75.8,54.5 75.9,54.6 C77.2,55.3 77.7,55.8 77.4,56.6 C77,57 76.6,57.1 76.1,56.9 Z" id="Shape" fill="#FFFFFF"></path>
                        <path d="M71.6,53.9 C71.9,53.2 72.6,53.3 73.7,53.9 C74.6,54.4 74.8,54.9 74.5,55.5 C74.2,56.1 73.6,56.1 72.7,55.6 C71.7,55 71.3,54.5 71.6,53.9 Z M75.9,57 L75.4,57.9 C75.4,57.9 75.4,57.9 75.5,57.9 C76.4,58.4 77.3,58.1 77.8,57.1 C78.2,56.4 78.2,55.7 77.8,55.2 C77.4,54.6 76.5,54.1 75.3,53.4 C73,52.2 71.8,51.9 71,53.4 C70.3,54.6 70.8,55.5 72.3,56.3 C73.7,57.1 74.7,56.9 75.3,55.8 C75.5,55.4 75.5,54.9 75.3,54.5 C75.4,54.6 75.6,54.6 75.7,54.7 C77,55.4 77.5,55.9 77.2,56.7 C76.8,57.2 76.4,57.3 75.9,57 Z" id="Shape" fill="#221F1F"></path>
                    </g>
                    <path d="M55.98,63.2109979 L69.88,63.2109979 C69.88,63.2109979 70.76,63.2109979 70.76,64.0009979 C70.76,64.0009979 70.74,64.6509979 69.92,64.6509979 L56.61,64.6509979 C56.67,64.8643312 56.72,65.0743312 56.76,65.2809979 L68.08,65.2809979 C68.08,65.2809979 68.96,65.2909979 68.96,66.0709979 C68.96,66.0709979 68.94,66.7309979 68.12,66.7309979 L56.74,66.7309979 C56.7498948,66.9242046 56.7498948,67.1177911 56.74,67.3109979 L66.22,67.3109979 C66.22,67.3109979 67.1,67.3109979 67.1,68.1009979 C67.1,68.1009979 67.08,68.7509979 66.27,68.7509979 L56.36,68.7509979 C55.3953113,71.2493289 52.9931117,72.8968224 50.315,72.8968224 C47.6368883,72.8968224 45.2346887,71.2493289 44.27,68.7509979 L34.27,68.7509979 C33.43,68.7209979 33.43,68.1009979 33.43,68.1009979 C33.38,67.3109979 34.31,67.3109979 34.31,67.3109979 L43.91,67.3109979 C43.9001052,67.1177911 43.9001052,66.9242046 43.91,66.7309979 L32.54,66.7309979 C31.7,66.7009979 31.7,66.0709979 31.7,66.0709979 C31.65,65.2809979 32.58,65.2809979 32.58,65.2809979 L44.01,65.2809979 C44.05,65.0709979 44.15,64.8609979 44.15,64.6509979 L30.74,64.6509979 C29.91,64.6209979 29.91,64.0009979 29.91,64.0009979 C29.86,63.2109979 30.79,63.2109979 30.79,63.2109979 L44.79,63.2109979 C45.9518593,61.2224392 48.0818972,60 50.385,60 C52.6881028,60 54.8181407,61.2224392 55.98,63.2109979 Z M78.71,44.8211111 L82.04,44.8011111 L85.01,47.8711111 L87.91,44.8211111 L91.19,44.8211111 L87.16,49.0011111 L90.99,53.0411111 L87.78,53.0411111 L85.01,50.1111111 L82.19,53.0311111 L78.99,53.0311111 L82.82,48.9911111 L78.71,44.8211111 Z M64.86,53.0411111 L69.61,46.3811111 C69.61,46.3811111 70.61,44.7211111 71.72,44.8011111 C72.5016543,44.9165669 73.1985818,45.3557765 73.64,46.0111111 L78.48,53.0111111 L68.88,53.0111111 L70.39,50.8611111 L73.81,50.8611111 L71.71,47.9211111 L68,53.0011111 L64.86,53.0011111 L64.86,53.0411111 Z M44,46.9211111 L45.58,44.8011111 L59.1,44.8011111 C59.37,44.8011111 63.7,44.8011111 63.1,48.4811111 C62.9894201,48.9721786 62.7227853,49.414231 62.34,49.7411111 C61.9861093,50.0609337 61.5969331,50.339396 61.18,50.5711111 L63.98,53.0411111 L60.37,53.0411111 L57.89,50.9811111 L54.34,50.9811111 L54.34,53.0411111 L51.75,53.0411111 L51.75,48.7811111 L59.35,48.7811111 C59.6384984,48.821917 59.9304464,48.7348659 60.1494864,48.5427256 C60.3685264,48.3505852 60.4928716,48.0724669 60.49,47.7811111 C60.49,47.4311111 60.06,46.9311111 59.29,46.9311111 L49.97,46.9311111 L49.97,53.0711111 L47.32,53.0711111 L47.32,46.9311111 L44,46.9311111 L44,46.9211111 Z M32.12,44.8211111 L35.37,44.8211111 L38.44,48.1511111 L41.31,44.8211111 L44.58,44.8211111 L39.72,50.3411111 L39.72,53.0611111 L37.13,53.0511111 L37.12,50.2911111 L32.12,44.8211111 Z M21.61,44.8211111 L24.15,44.8211111 L24.15,47.6611111 L28.03,44.8111111 L31.84,44.8111111 L26.11,48.9611111 L31.89,53.0311111 L28.06,53.0311111 L24.17,50.2711111 L24.17,53.0411111 L21.59,53.0411111 L21.59,44.8211111 L21.61,44.8211111 Z M17.86,50.8911111 C17.86,50.8911111 18.57,50.8911111 18.76,50.4711111 C18.84,50.2711111 18.7,49.7611111 17.87,49.7611111 L13.19,49.6711111 C13.19,49.6711111 11.02,49.6711111 10.31,48.1511111 C9.6,46.6311111 10.92,44.8511111 13.31,44.7811111 C15.7,44.7111111 20.96,44.7811111 20.96,44.7811111 L19.28,46.9211111 L13.52,46.9211111 C13.52,46.9211111 13.05,46.9211111 12.98,47.1911111 C12.9414973,47.2842036 12.9540651,47.390608 13.0131965,47.4721686 C13.072328,47.5537293 13.1695502,47.5987592 13.27,47.5911111 C13.41,47.5911111 17.64,47.5911111 17.64,47.5911111 C18.7707288,47.5369524 19.8679908,47.9831723 20.64,48.8111111 C21.64,50.1111111 21.45,52.2711111 18.76,52.9311111 C17.3938386,53.0573644 16.0206849,53.0907744 14.65,53.0311111 L10.11,53.0311111 L11.76,50.9311111 L17.86,50.8911111 Z" id="shadow" fill="#2A2A2A" fill-rule="nonzero"></path>
                    <path d="M69.88,63.84 L55.98,63.84 C54.8181407,61.8514413 52.6881028,60.6290021 50.385,60.6290021 C48.0818972,60.6290021 45.9518593,61.8514413 44.79,63.84 L30.79,63.84 C30.79,63.84 29.86,63.84 29.91,64.63 C29.91,64.63 29.91,65.25 30.74,65.28 L44.15,65.28 C44.15,65.49 44.05,65.7 44.01,65.91 L32.58,65.91 C32.58,65.91 31.65,65.91 31.7,66.7 C31.7,66.7 31.7,67.33 32.54,67.36 L43.91,67.36 C43.9001052,67.5532067 43.9001052,67.7467933 43.91,67.94 L34.31,67.94 C34.31,67.94 33.38,67.94 33.43,68.73 C33.43,68.73 33.43,69.35 34.27,69.38 L44.27,69.38 C45.2346887,71.8783311 47.6368883,73.5258246 50.315,73.5258246 C52.9931117,73.5258246 55.3953113,71.8783311 56.36,69.38 L66.27,69.38 C67.08,69.38 67.1,68.73 67.1,68.73 C67.1,67.94 66.22,67.94 66.22,67.94 L56.74,67.94 C56.7498948,67.7467933 56.7498948,67.5532067 56.74,67.36 L68.12,67.36 C68.94,67.36 68.96,66.7 68.96,66.7 C68.96,65.92 68.08,65.91 68.08,65.91 L56.76,65.91 C56.72,65.7033333 56.67,65.4933333 56.61,65.28 L69.92,65.28 C70.74,65.28 70.76,64.63 70.76,64.63 C70.76,63.84 69.88,63.84 69.88,63.84" id="shield" fill="url(#linearGradient-3)" fill-rule="nonzero"></path>
                    <g id="Skytrax" transform="translate(9.195344, 44.416315)">
                        <polygon id="Mask" fill="url(#linearGradient-4)" fill-rule="nonzero" points="69.5146558 1.01368512 72.8446558 0.993685118 75.8146558 4.06368512 78.7146558 1.01368512 81.9946558 1.01368512 77.9646558 5.19368512 81.7946558 9.23368512 78.5846558 9.23368512 75.8146558 6.30368512 72.9946558 9.22368512 69.7946558 9.22368512 73.6246558 5.18368512"></polygon>
                        <path d="M55.6646558,9.23368512 L60.4146558,2.57368512 C60.4146558,2.57368512 61.4146558,0.913685118 62.5246558,0.993685118 C63.3063101,1.10914095 64.0032376,1.54835051 64.4446558,2.20368512 L69.2846558,9.20368512 L59.6846558,9.20368512 L61.1946558,7.05368512 L64.6146558,7.05368512 L62.5146558,4.11368512 L58.8046558,9.19368512 L55.6646558,9.19368512 L55.6646558,9.23368512 Z" id="Mask" fill="url(#linearGradient-5)" fill-rule="nonzero"></path>
                        <path d="M34.8046558,3.11368512 L36.3846558,0.993685118 L49.9046558,0.993685118 C50.1746558,0.993685118 54.5046558,0.993685118 53.9046558,4.67368512 C53.7940759,5.16475265 53.5274411,5.60680496 53.1446558,5.93368512 C52.7907651,6.25350773 52.4015889,6.53197003 51.9846558,6.76368512 L54.7846558,9.23368512 L51.1746558,9.23368512 L48.6946558,7.17368512 L45.1446558,7.17368512 L45.1446558,9.23368512 L42.5546558,9.23368512 L42.5546558,4.97368512 L50.1546558,4.97368512 C50.4431542,5.01449106 50.7351022,4.92743994 50.9541422,4.7352996 C51.1731822,4.54315925 51.2975274,4.26504088 51.2946558,3.97368512 C51.2946558,3.62368512 50.8646558,3.12368512 50.0946558,3.12368512 L40.7746558,3.12368512 L40.7746558,9.26368512 L38.1246558,9.26368512 L38.1246558,3.12368512 L34.8046558,3.12368512 L34.8046558,3.11368512 Z" id="Mask" fill="url(#linearGradient-6)" fill-rule="nonzero"></path>
                        <polygon id="Mask" fill="url(#linearGradient-7)" fill-rule="nonzero" points="22.9246558 1.01368512 26.1746558 1.01368512 29.2446558 4.34368512 32.1146558 1.01368512 35.3846558 1.01368512 30.5246558 6.53368512 30.5246558 9.25368512 27.9346558 9.24368512 27.9246558 6.48368512"></polygon>
                        <polygon id="Mask" fill="url(#linearGradient-8)" fill-rule="nonzero" points="12.4146558 1.01368512 14.9546558 1.01368512 14.9546558 3.85368512 18.8346558 1.00368512 22.6446558 1.00368512 16.9146558 5.15368512 22.6946558 9.22368512 18.8646558 9.22368512 14.9746558 6.46368512 14.9746558 9.23368512 12.3946558 9.23368512 12.3946558 1.01368512"></polygon>
                        <mask id="mask-11" fill="white">
                            <use xlink:href="#path-10"></use>
                        </mask>
                        <use id="Mask" fill="url(#linearGradient-9)" fill-rule="nonzero" xlink:href="#path-10"></use>
                    </g>
                </g>
            </g>
        </g>
    </g>
</svg>