<?xml version="1.0" encoding="UTF-8"?>
<svg width="100px" height="100px" viewBox="0 0 100 100" version="1.1" xmlns="http://www.w3.org/2000/svg" xmlns:xlink="http://www.w3.org/1999/xlink">
    <!-- Generator: Sketch 55.2 (78181) - https://sketchapp.com -->
    <title>skytrax-en</title>
    <desc>Created with Sketch.</desc>
    <defs>
        <linearGradient x1="21.3106652%" y1="69.4944112%" x2="100%" y2="-8.13866079%" id="linearGradient-1">
            <stop stop-color="#C6952C" offset="0%"></stop>
            <stop stop-color="#C6952C" offset="4%"></stop>
            <stop stop-color="#C99B2E" offset="6%"></stop>
            <stop stop-color="#D3AC32" offset="9%"></stop>
            <stop stop-color="#E2C739" offset="12%"></stop>
            <stop stop-color="#E5CC3A" offset="12%"></stop>
            <stop stop-color="#E2C638" offset="13%"></stop>
            <stop stop-color="#D2AB32" offset="15%"></stop>
            <stop stop-color="#C99B2D" offset="18%"></stop>
            <stop stop-color="#C6952C" offset="20%"></stop>
            <stop stop-color="#D0A52B" offset="22%"></stop>
            <stop stop-color="#E6CA29" offset="27%"></stop>
            <stop stop-color="#DBB72A" offset="30%"></stop>
            <stop stop-color="#CC9E2B" offset="34%"></stop>
            <stop stop-color="#C6952C" offset="37%"></stop>
            <stop stop-color="#D0A72D" offset="38%"></stop>
            <stop stop-color="#DBB92D" offset="41%"></stop>
            <stop stop-color="#E2C42E" offset="43%"></stop>
            <stop stop-color="#E4C82E" offset="45%"></stop>
            <stop stop-color="#E3C72E" offset="45%"></stop>
            <stop stop-color="#CEA32D" offset="49%"></stop>
            <stop stop-color="#C6952C" offset="51%"></stop>
            <stop stop-color="#C6952C" offset="100%"></stop>
        </linearGradient>
        <linearGradient x1="19.8925191%" y1="19.6758835%" x2="80.8134942%" y2="80.1320322%" id="linearGradient-2">
            <stop stop-color="#C6952C" offset="0%"></stop>
            <stop stop-color="#CB9D2E" offset="11%"></stop>
            <stop stop-color="#D7B334" offset="28%"></stop>
            <stop stop-color="#E5CC3A" offset="46.645591%"></stop>
            <stop stop-color="#D5B033" offset="64%"></stop>
            <stop stop-color="#CA9C2E" offset="86%"></stop>
            <stop stop-color="#C6952C" offset="100%"></stop>
        </linearGradient>
        <linearGradient x1="30.1607633%" y1="40.2956004%" x2="73.4116529%" y2="57.0127008%" id="linearGradient-3">
            <stop stop-color="#E1E2E3" offset="0%"></stop>
            <stop stop-color="#E8E9E9" offset="8%"></stop>
            <stop stop-color="#FFFFFF" offset="37%"></stop>
            <stop stop-color="#DADBDC" offset="51%"></stop>
            <stop stop-color="#F0F0F1" offset="58%"></stop>
            <stop stop-color="#FFFFFF" offset="64%"></stop>
            <stop stop-color="#FBFBFB" offset="68%"></stop>
            <stop stop-color="#EEEFEF" offset="71%"></stop>
            <stop stop-color="#DADBDC" offset="74%"></stop>
            <stop stop-color="#DFDFE0" offset="75%"></stop>
            <stop stop-color="#EAEBEB" offset="79%"></stop>
            <stop stop-color="#F1F1F1" offset="85%"></stop>
            <stop stop-color="#F3F3F3" offset="100%"></stop>
        </linearGradient>
        <linearGradient x1="56.5937293%" y1="78.0484428%" x2="13.0436571%" y2="25.9013327%" id="linearGradient-4">
            <stop stop-color="#C5C6C8" offset="0%"></stop>
            <stop stop-color="#D7D8D9" offset="2.73279168%"></stop>
            <stop stop-color="#E9E9EA" offset="5%"></stop>
            <stop stop-color="#F6F6F6" offset="9%"></stop>
            <stop stop-color="#FDFDFD" offset="14%"></stop>
            <stop stop-color="#FFFFFF" offset="25%"></stop>
            <stop stop-color="#E1E1E1" offset="39%"></stop>
            <stop stop-color="#CECECE" offset="49%"></stop>
            <stop stop-color="#D3D3D3" offset="51%"></stop>
            <stop stop-color="#F3F3F3" offset="61%"></stop>
            <stop stop-color="#FFFFFF" offset="67%"></stop>
            <stop stop-color="#FCFCFC" offset="75%"></stop>
            <stop stop-color="#F3F3F3" offset="81%"></stop>
            <stop stop-color="#E2E2E3" offset="86%"></stop>
            <stop stop-color="#CCCCCD" offset="91%"></stop>
            <stop stop-color="#B2B2B4" offset="95%"></stop>
            <stop stop-color="#B2B2B4" offset="100%"></stop>
        </linearGradient>
        <linearGradient x1="56.5937293%" y1="73.5656247%" x2="13.0436571%" y2="29.7528813%" id="linearGradient-5">
            <stop stop-color="#C5C6C8" offset="0%"></stop>
            <stop stop-color="#D7D8D9" offset="2.73279168%"></stop>
            <stop stop-color="#E9E9EA" offset="5%"></stop>
            <stop stop-color="#F6F6F6" offset="9%"></stop>
            <stop stop-color="#FDFDFD" offset="14%"></stop>
            <stop stop-color="#FFFFFF" offset="25%"></stop>
            <stop stop-color="#E1E1E1" offset="39%"></stop>
            <stop stop-color="#CECECE" offset="49%"></stop>
            <stop stop-color="#D3D3D3" offset="51%"></stop>
            <stop stop-color="#F3F3F3" offset="61%"></stop>
            <stop stop-color="#FFFFFF" offset="67%"></stop>
            <stop stop-color="#FCFCFC" offset="75%"></stop>
            <stop stop-color="#F3F3F3" offset="81%"></stop>
            <stop stop-color="#E2E2E3" offset="86%"></stop>
            <stop stop-color="#CCCCCD" offset="91%"></stop>
            <stop stop-color="#B2B2B4" offset="95%"></stop>
            <stop stop-color="#B2B2B4" offset="100%"></stop>
        </linearGradient>
        <linearGradient x1="68.5474493%" y1="64.0961584%" x2="16.6830867%" y2="36.4331257%" id="linearGradient-6">
            <stop stop-color="#C5C6C8" offset="0%"></stop>
            <stop stop-color="#D7D8D9" offset="2.73279168%"></stop>
            <stop stop-color="#E9E9EA" offset="5%"></stop>
            <stop stop-color="#F6F6F6" offset="9%"></stop>
            <stop stop-color="#FDFDFD" offset="14%"></stop>
            <stop stop-color="#FFFFFF" offset="25%"></stop>
            <stop stop-color="#E1E1E1" offset="39%"></stop>
            <stop stop-color="#CECECE" offset="49%"></stop>
            <stop stop-color="#D3D3D3" offset="51%"></stop>
            <stop stop-color="#F3F3F3" offset="61%"></stop>
            <stop stop-color="#FFFFFF" offset="67%"></stop>
            <stop stop-color="#FCFCFC" offset="75%"></stop>
            <stop stop-color="#F3F3F3" offset="81%"></stop>
            <stop stop-color="#E2E2E3" offset="86%"></stop>
            <stop stop-color="#CCCCCD" offset="91%"></stop>
            <stop stop-color="#B2B2B4" offset="94.8620866%"></stop>
            <stop stop-color="#B2B2B4" offset="100%"></stop>
        </linearGradient>
        <linearGradient x1="56.5937293%" y1="78.1385582%" x2="13.0436571%" y2="25.8239073%" id="linearGradient-7">
            <stop stop-color="#C5C6C8" offset="0%"></stop>
            <stop stop-color="#D7D8D9" offset="2.73279168%"></stop>
            <stop stop-color="#E9E9EA" offset="5%"></stop>
            <stop stop-color="#F6F6F6" offset="9%"></stop>
            <stop stop-color="#FDFDFD" offset="14%"></stop>
            <stop stop-color="#FFFFFF" offset="25%"></stop>
            <stop stop-color="#E1E1E1" offset="39%"></stop>
            <stop stop-color="#CECECE" offset="49%"></stop>
            <stop stop-color="#D3D3D3" offset="51%"></stop>
            <stop stop-color="#F3F3F3" offset="61%"></stop>
            <stop stop-color="#FFFFFF" offset="67%"></stop>
            <stop stop-color="#FCFCFC" offset="75%"></stop>
            <stop stop-color="#F3F3F3" offset="81%"></stop>
            <stop stop-color="#E2E2E3" offset="86%"></stop>
            <stop stop-color="#CCCCCD" offset="91%"></stop>
            <stop stop-color="#B2B2B4" offset="95%"></stop>
            <stop stop-color="#B2B2B4" offset="100%"></stop>
        </linearGradient>
        <linearGradient x1="56.5937293%" y1="91.0779463%" x2="13.0436571%" y2="14.7066409%" id="linearGradient-8">
            <stop stop-color="#C5C6C8" offset="0%"></stop>
            <stop stop-color="#D7D8D9" offset="2.73279168%"></stop>
            <stop stop-color="#E9E9EA" offset="5%"></stop>
            <stop stop-color="#F6F6F6" offset="9%"></stop>
            <stop stop-color="#FDFDFD" offset="14%"></stop>
            <stop stop-color="#FFFFFF" offset="25%"></stop>
            <stop stop-color="#E1E1E1" offset="39%"></stop>
            <stop stop-color="#CECECE" offset="49%"></stop>
            <stop stop-color="#D3D3D3" offset="51%"></stop>
            <stop stop-color="#F3F3F3" offset="61%"></stop>
            <stop stop-color="#FFFFFF" offset="67%"></stop>
            <stop stop-color="#FCFCFC" offset="75%"></stop>
            <stop stop-color="#F3F3F3" offset="81%"></stop>
            <stop stop-color="#E2E2E3" offset="86%"></stop>
            <stop stop-color="#CCCCCD" offset="91%"></stop>
            <stop stop-color="#B2B2B4" offset="95%"></stop>
            <stop stop-color="#B2B2B4" offset="100%"></stop>
        </linearGradient>
        <linearGradient x1="56.5937293%" y1="86.1471346%" x2="13.0436571%" y2="18.9430969%" id="linearGradient-9">
            <stop stop-color="#C5C6C8" offset="0%"></stop>
            <stop stop-color="#D7D8D9" offset="2.73279168%"></stop>
            <stop stop-color="#E9E9EA" offset="5%"></stop>
            <stop stop-color="#F6F6F6" offset="9%"></stop>
            <stop stop-color="#FDFDFD" offset="14%"></stop>
            <stop stop-color="#FFFFFF" offset="25%"></stop>
            <stop stop-color="#E1E1E1" offset="39%"></stop>
            <stop stop-color="#CECECE" offset="49%"></stop>
            <stop stop-color="#D3D3D3" offset="51%"></stop>
            <stop stop-color="#F3F3F3" offset="61%"></stop>
            <stop stop-color="#FFFFFF" offset="67%"></stop>
            <stop stop-color="#FCFCFC" offset="75%"></stop>
            <stop stop-color="#F3F3F3" offset="81%"></stop>
            <stop stop-color="#E2E2E3" offset="86%"></stop>
            <stop stop-color="#CCCCCD" offset="91%"></stop>
            <stop stop-color="#B2B2B4" offset="95%"></stop>
            <stop stop-color="#B2B2B4" offset="100%"></stop>
        </linearGradient>
        <path d="M8.6646558,7.08368512 C8.6646558,7.08368512 9.3746558,7.08368512 9.5646558,6.66368512 C9.6446558,6.46368512 9.5046558,5.95368512 8.6746558,5.95368512 L3.9946558,5.86368512 C3.9946558,5.86368512 1.8246558,5.86368512 1.1146558,4.34368512 C0.404655795,2.82368512 1.7246558,1.04368512 4.1146558,0.973685118 C6.5046558,0.903685118 11.7646558,0.973685118 11.7646558,0.973685118 L10.0846558,3.11368512 L4.3246558,3.11368512 C4.3246558,3.11368512 3.8546558,3.11368512 3.7846558,3.38368512 C3.74615311,3.47677758 3.75872085,3.58318203 3.8178523,3.66474265 C3.87698375,3.74630328 3.97420596,3.79133323 4.0746558,3.78368512 C4.2146558,3.78368512 8.4446558,3.78368512 8.4446558,3.78368512 C9.57538462,3.72952644 10.6726466,4.17574632 11.4446558,5.00368512 C12.4446558,6.30368512 12.2546558,8.46368512 9.5646558,9.12368512 C8.19849442,9.24993836 6.82534068,9.28334843 5.4546558,9.22368512 L0.914655795,9.22368512 L2.5646558,7.12368512 L8.6646558,7.08368512 Z" id="path-10"></path>
    </defs>
    <g id="Page-1" stroke="none" stroke-width="1" fill="none" fill-rule="evenodd">
        <g id="Skytrax_2019_EN">
            <g id="Badge-2019-EN">
                <g id="Badge-EN">
                    <path d="M50,100 C77.6142375,100 100,77.6142375 100,50 C100,22.3857625 77.6142375,0 50,0 C22.3857625,0 0,22.3857625 0,50 C0,77.6142375 22.3857625,100 50,100 Z M50,97 C24.0426168,97 3,75.9573832 3,50 C3,24.0426168 24.0426168,3 50,3 C75.9573832,3 97,24.0426168 97,50 C97,75.9573832 75.9573832,97 50,97 Z" id="Outside-ring" fill="url(#linearGradient-1)" fill-rule="nonzero"></path>
                    <circle id="Mask" fill="url(#linearGradient-2)" fill-rule="nonzero" cx="50" cy="50" r="44"></circle>
                    <g id="Awards" transform="translate(11.500000, 63.000000)" fill-rule="nonzero">
                        <path d="M2.7574359,6.67172414 L4.17025641,5.45517241 L3.01076923,3.16689655 L1.16923077,3.47586207 L0.711282051,2.51034483 L8.36974359,1.37103448 L8.88615385,2.4137931 L3.22512821,7.63724138 L2.7574359,6.67172414 Z M3.90717949,2.96413793 L4.83282051,4.84689655 L7.59025641,2.37517241 L3.90717949,2.96413793 Z M5.99230769,11.6441379 L10.5425641,5.52275862 L11.1758974,6.27586207 L7.70717949,10.7944828 C7.55128205,10.9972414 7.28820513,11.2772414 6.92769231,11.6634483 C7.43435897,11.3544828 7.77538462,11.1806897 7.90205128,11.1131034 L13.0564103,8.55448276 L13.7189744,9.32689655 L10.3087179,13.8165517 C10.0580499,14.1562093 9.78461234,14.4787762 9.49025641,14.782069 C9.81179487,14.5793103 10.1625641,14.3958621 10.5328205,14.2027586 L15.6287179,11.6248276 L16.2425641,12.3586207 L9.36358974,15.6317241 L8.62307692,14.7531034 L11.4487179,10.9972414 C11.8565311,10.4666133 12.2957648,9.96043612 12.7641026,9.48137931 C12.1989852,9.84802365 11.6061074,10.1708246 10.9907692,10.4468966 L6.75230769,12.542069 L5.99230769,11.6441379 Z M17.3630769,21.9075862 L18.0061538,20.16 L15.8625641,18.6731034 L14.3815385,19.8413793 L13.514359,19.2427586 L19.6528205,14.56 L20.6271795,15.2262069 L18.2302564,22.5062069 L17.3630769,21.9075862 Z M16.5446154,18.1131034 L18.2692308,19.3103448 L19.4676923,15.8248276 L16.5446154,18.1131034 Z M26.7851282,18.2772414 L26.7558974,18.2772414 C28.2271795,18.7986207 28.6753846,19.5710345 28.2271795,20.7296552 C28.0208702,21.5444458 27.2239927,22.0708767 26.385641,21.9462069 C27.145641,22.3324138 27.2138462,22.8055172 26.8630769,23.7710345 L26.5805128,24.4565517 C26.4178505,24.9241029 26.3195294,25.4112472 26.2882051,25.9048276 L25.3138462,25.5475862 C25.440071,24.7963954 25.6593338,24.063504 25.9666667,23.3655172 C26.2297436,22.6510345 26.1517949,22.2841379 25.5379487,22.0524138 L24.4466667,21.6372414 L23.2287179,24.7558621 L22.3225641,24.4082759 L24.9728205,17.5917241 L26.7851282,18.2772414 Z M24.7292308,20.9131034 L25.3528205,21.2124138 C26.3271795,21.5793103 26.9605128,21.4151724 27.3015385,20.5462069 C27.5176478,20.2619555 27.558432,19.8829453 27.4076689,19.5599291 C27.2569058,19.2369128 26.9390434,19.0222714 26.5805128,19.0013793 L25.6061538,18.6151724 L24.7292308,20.9131034 Z M32.2902564,26.4841379 L33.3133333,26.657931 C33.985641,26.7544828 34.414359,26.6772414 34.6871795,26.3393103 C35.0826068,25.6197686 35.309086,24.8210831 35.3497436,24.0027586 C35.4484489,23.3249448 35.4680652,22.6381229 35.4082051,21.9558621 C35.2620513,21.3282759 34.8528205,21.0965517 34.0635897,20.9903448 L33.0892308,20.8455172 L32.2902564,26.4841379 Z M31.1989744,27.1793103 L32.2220513,19.9186207 L33.985641,20.1696552 C34.7437958,20.1540961 35.4768486,20.4390954 36.0220513,20.9613793 C36.5871795,21.6565517 36.4702564,22.6703448 36.2461538,24.2634483 C36.2173019,25.2033949 35.9310168,26.1178688 35.4179487,26.9089655 C34.7846154,27.6234483 34.0538462,27.5751724 32.9528205,27.4206897 L31.1989744,27.1793103 Z M40.2215385,25.7986207 L41.2641026,25.7117241 C41.259272,25.7534263 41.259272,25.7955392 41.2641026,25.8372414 C41.3420513,26.7641379 41.6928205,27.1503448 42.4625641,27.0827586 C42.7807364,27.0836929 43.0848252,26.9528233 43.3013269,26.7217835 C43.5178285,26.4907437 43.6270404,26.180559 43.6025641,25.8662069 C43.5441026,25.1613793 42.94,24.9296552 41.7902564,24.3406897 C40.6405128,23.7517241 40.0461538,23.3944828 39.9584615,22.3517241 C39.9224333,21.8079777 40.119922,21.2744575 40.5022157,20.8827603 C40.8845094,20.491063 41.416018,20.2776541 41.965641,20.2951724 C42.5033855,20.1685455 43.0700497,20.292008 43.5045971,20.6304742 C43.9391445,20.9689403 44.1940682,21.4854071 44.1969231,22.0331034 C44.1969231,22.0910345 44.1969231,22.1586207 44.1969231,22.2165517 L43.2225641,22.3034483 C43.2225641,22.2551724 43.2225641,22.1489655 43.2225641,22.1489655 C43.154359,21.3668966 42.7451282,21 42.0338462,21.057931 C41.745288,21.0577384 41.4690725,21.1739031 41.2687399,21.3797027 C41.0684074,21.5855023 40.9612055,21.8632184 40.9717949,22.1489655 C41.0789744,22.9213793 41.7805128,23.2206897 43.0276923,23.8868966 C44.0215385,24.4082759 44.5476923,24.7848276 44.625641,25.6344828 C44.7328205,26.88 43.9728205,27.7393103 42.5502564,27.8455172 C41.1276923,27.9517241 40.3384615,27.3627586 40.2215385,26.0206897 C40.2259935,25.9467325 40.2259935,25.8725779 40.2215385,25.7986207 Z M56.1230769,24.137931 L55.694359,23.3462069 L56.1620513,19.5806897 C56.2586771,19.0081452 56.1946351,18.4202975 55.9769231,17.8813793 C55.8688358,17.6630603 55.6715277,17.5010974 55.4349438,17.4364888 C55.19836,17.3718802 54.9451782,17.4108189 54.7394872,17.5434483 C54.2035897,17.8331034 54.1451282,18.257931 54.4861538,18.9917241 L53.6092308,19.4551724 C53.58,19.3972414 53.5117949,19.2910345 53.5117949,19.2910345 C53.2449736,18.861283 53.1924477,18.3338046 53.3693599,17.8606647 C53.546272,17.3875249 53.9329608,17.0213067 54.4179487,16.8675862 C54.7900717,16.5845529 55.2699571,16.4801966 55.7274868,16.582813 C56.1850165,16.6854294 56.5727813,16.9843854 56.785641,17.3986207 C57.1388785,18.2136015 57.2405926,19.1140022 57.0779487,19.9862069 L56.6882051,22.8827586 L59.114359,21.6082759 L59.5138462,22.3517241 L56.1230769,24.137931 Z M61.9205128,16.4717241 C63.1774359,18.0358621 63.7620513,18.6731034 64.5902564,18.0358621 C65.4184615,17.3986207 64.8825641,16.7034483 63.6158974,15.1393103 C62.3492308,13.5751724 61.7841026,12.9282759 60.9461538,13.5751724 C60.1082051,14.222069 60.6538462,14.9365517 61.9205128,16.4717241 Z M60.4394872,12.937931 L60.4394872,12.9186207 C60.8903462,12.5065095 61.520201,12.346846 62.1153846,12.4937931 C62.7974359,12.6675862 63.3820513,13.4110345 64.2102564,14.3765517 L64.3271795,14.5213793 L64.4441026,14.6662069 C65.1418887,15.3191206 65.635666,16.1569573 65.8666667,17.08 C65.8872206,17.6874939 65.5979245,18.2644645 65.0969231,18.6151724 C64.6451709,19.0330411 64.0143121,19.2028752 63.4112821,19.0689655 C62.7097436,18.8758621 62.105641,18.1324138 61.2092308,17.0413793 C60.3128205,15.9503448 59.6697436,15.2068966 59.6697436,14.4827586 C59.6494205,13.8726507 59.938303,13.2928814 60.4394872,12.937931 Z M71.4010256,12.0110345 L70.8164103,12.7255172 L66.1102564,8.96 C66.1174381,9.38939113 66.0913788,9.81869577 66.0323077,10.2441379 L65.2625641,9.6262069 C65.358491,9.12012128 65.404179,8.60594396 65.3989744,8.09103448 L65.8374359,7.55034483 L71.4010256,12.0110345 Z M69.6276923,2.3462069 C69.3451282,2.93517241 69.8128205,3.45655172 70.7189744,3.90068966 C71.6251282,4.34482759 72.2,4.27724138 72.4825641,3.70758621 C72.7651282,3.13793103 72.4728205,2.63586207 71.6348718,2.23034483 C70.5533333,1.70896552 69.9394872,1.71862069 69.6276923,2.3462069 Z M73.7979487,5.18482759 L73.72,5.17517241 C74.265641,5.38758621 74.645641,5.29103448 74.8502564,4.87586207 C75.2010256,4.17103448 74.7041026,3.69793103 73.3887179,3.06068966 L72.9892308,2.87724138 C73.2553706,3.24924489 73.2892216,3.73749392 73.0769231,4.14206897 C72.5702564,5.16551724 71.5958974,5.37793103 70.2220513,4.71172414 C68.7020513,3.97793103 68.2538462,3.15724138 68.8482051,1.96 C69.5692308,0.482758621 70.7287179,0.704827586 72.9794872,1.79586207 C73.9053565,2.14873022 74.745447,2.6916436 75.4446154,3.38896552 C75.8492737,3.91347331 75.8879525,4.63020232 75.5420513,5.19448276 C75.3974077,5.62153601 75.0707818,5.96408757 74.648706,6.13138588 C74.2266301,6.2986842 73.751702,6.27384477 73.3497436,6.06344828 L73.7979487,5.18482759 Z" id="Awards2019-white" fill="#FFFFFF"></path>
                        <path d="M2.41641026,6.67172414 L3.81948718,5.4937931 L2.66974359,3.16689655 L0.828205128,3.4662069 L0.37025641,2.50068966 L8.06769231,1.36137931 L8.53538462,2.4137931 L2.88410256,7.63724138 L2.41641026,6.67172414 Z M3.55641026,2.96413793 L4.49179487,4.84689655 L7.24923077,2.37517241 L3.55641026,2.96413793 Z M5.65128205,11.6441379 L10.1528205,5.52275862 L10.7861538,6.27586207 L7.32717949,10.7944828 C7.17128205,10.9972414 6.90820513,11.2772414 6.54769231,11.6634483 C7.05435897,11.3544828 7.38564103,11.1806897 7.52205128,11.1131034 L12.6764103,8.55448276 L13.3389744,9.32689655 L9.92871795,13.8165517 C9.67804989,14.1562093 9.40461234,14.4787762 9.11025641,14.782069 C9.43179487,14.5793103 9.7825641,14.3958621 10.1528205,14.2027586 L15.2487179,11.6248276 L15.8625641,12.3586207 L9.0225641,15.6317241 L8.27230769,14.7531034 L11.1271795,10.9972414 C11.5349926,10.4666133 11.9742263,9.96043612 12.4425641,9.48137931 C11.8774467,9.84802365 11.2845689,10.1708246 10.6692308,10.4468966 L6.41128205,12.542069 L5.65128205,11.6441379 Z M17.0123077,21.9075862 L17.6261538,20.16 L15.4825641,18.6731034 L14.0307692,19.8413793 L13.1635897,19.2427586 L19.3020513,14.56 L20.2764103,15.2262069 L17.8892308,22.5062069 L17.0123077,21.9075862 Z M16.2035897,18.1131034 L17.9282051,19.3103448 L19.1266667,15.8248276 L16.2035897,18.1131034 Z M26.434359,18.2772414 L26.4635897,18.257931 C27.9348718,18.7793103 28.3830769,19.5517241 27.9348718,20.7103448 C27.7328563,21.5237129 26.9390754,22.0508874 26.1030769,21.9268966 C26.8533333,22.3131034 26.9312821,22.7862069 26.5707692,23.7517241 C26.4733333,24.0124138 26.3758974,24.2441379 26.2979487,24.4372414 C26.1057247,24.906247 25.9842506,25.4007475 25.9374359,25.9048276 L24.9630769,25.5475862 C25.093003,24.7961068 25.3155214,24.0632712 25.625641,23.3655172 C25.8789744,22.6510345 25.8010256,22.2841379 25.1871795,22.0524138 L24.0958974,21.6372414 L22.8876923,24.7558621 L21.9815385,24.4082759 L24.6317949,17.5917241 L26.434359,18.2772414 Z M24.4174359,20.8937931 L25.0020513,21.2124138 C25.9764103,21.5793103 26.6194872,21.4151724 26.9507692,20.5462069 C27.1521629,20.2746687 27.1961146,19.9187272 27.0667324,19.6070827 C26.9373501,19.2954382 26.6533561,19.0731869 26.3174359,19.0206897 L25.294359,18.6344828 L24.4174359,20.8937931 Z M31.9394872,26.4841379 L33.0015385,26.657931 C33.6738462,26.7544828 34.0928205,26.6772414 34.3753846,26.3393103 C34.7477854,25.6006868 34.9507504,24.7895998 34.9697436,23.9641379 C35.0943604,23.3023082 35.1401438,22.6282704 35.1061538,21.9558621 C34.9697436,21.3282759 34.5507692,21.0965517 33.7712821,20.9903448 L32.7482051,20.8455172 L31.9394872,26.4841379 Z M30.8482051,27.1793103 L31.8810256,19.9186207 L33.6348718,20.1696552 C34.3948582,20.1599233 35.1287862,20.4439042 35.6810256,20.9613793 C36.2461538,21.6565517 36.1194872,22.6703448 35.8953846,24.2634483 C35.8734094,25.2031141 35.590195,26.1185494 35.0769231,26.9089655 C34.4338462,27.6234483 33.7030769,27.5751724 32.6117949,27.4206897 L30.8482051,27.1793103 Z M39.8317949,25.7986207 L40.9717949,25.7117241 C40.9717949,25.7503448 40.9717949,25.8372414 40.9717949,25.8372414 C41.0497436,26.7641379 41.4005128,27.1503448 42.1702564,27.0827586 C42.7981493,27.0314348 43.2674103,26.4889316 43.2225641,25.8662069 C43.154359,25.1613793 42.56,24.9296552 41.4102564,24.3406897 C40.2605128,23.7517241 39.6661538,23.3944828 39.5687179,22.3517241 C39.5324785,21.8062427 39.7312562,21.2711 40.1157326,20.8790693 C40.5002091,20.4870387 41.0343538,20.2748585 41.585641,20.2951724 C42.1224227,20.1680577 42.6883898,20.2916202 43.1215641,20.6304966 C43.5547383,20.969373 43.8073784,21.4862148 43.8071795,22.0331034 C43.8071795,22.0910345 43.8071795,22.1586207 43.8071795,22.2165517 L42.8328205,22.3034483 C42.8328205,22.2551724 42.8328205,22.1489655 42.8328205,22.1489655 C42.7646154,21.3668966 42.3553846,21 41.6441026,21.057931 C41.354676,21.0549671 41.076796,21.1702654 40.87585,21.3766952 C40.6749039,21.5831251 40.5686357,21.8624583 40.5820513,22.1489655 C40.6794872,22.9213793 41.3907692,23.2206897 42.6282051,23.8868966 C43.6317949,24.4082759 44.1579487,24.7848276 44.2261538,25.6344828 C44.3430769,26.88 43.5830769,27.7393103 42.1605128,27.8455172 C40.7379487,27.9517241 39.9487179,27.3627586 39.8317949,26.0206897 C39.8317949,25.9531034 39.8317949,25.8855172 39.8317949,25.7986207 Z M55.8112821,24.137931 L55.3435897,23.3462069 L55.8112821,19.5806897 C55.9129874,18.992377 55.8489279,18.3876638 55.6261538,17.8331034 C55.5201538,17.6153418 55.3246056,17.4533978 55.0895219,17.3886893 C54.8544381,17.3239808 54.6026164,17.3627832 54.3984615,17.4951724 C53.8528205,17.7848276 53.794359,18.2096552 54.1451282,18.9434483 L53.2682051,19.4068966 C53.2389744,19.3489655 53.1610256,19.2427586 53.1610256,19.2427586 C52.8981333,18.8121984 52.8477586,18.2863348 53.0242019,17.8144491 C53.2006451,17.3425634 53.5846403,16.9761812 54.0671795,16.8193103 C54.4409303,16.536104 54.9221641,16.4316868 55.3811492,16.5342077 C55.8401343,16.6367286 56.2296226,16.9356341 56.4446154,17.3503448 C56.7906825,18.1848892 56.8755524,19.1032583 56.6882051,19.9862069 L56.3082051,22.8827586 L58.734359,21.6082759 L59.2020513,22.3517241 L55.8112821,24.137931 Z M61.5697436,16.4717241 C62.8364103,18.0358621 63.4307692,18.6731034 64.2492308,18.0358621 C65.0676923,17.3986207 64.5415385,16.7034483 63.2748718,15.1393103 C62.0082051,13.5751724 61.4235897,12.9282759 60.5953846,13.5751724 C59.7671795,14.222069 60.3128205,14.9365517 61.5697436,16.4717241 Z M60.0984615,12.937931 L60.1374359,12.937931 C60.5843916,12.52588 61.2114401,12.3659984 61.8035897,12.5131034 C62.4953846,12.6868966 63.08,13.4303448 63.9082051,14.3958621 L64.0251282,14.5406897 C64.0611022,14.5912707 64.1001487,14.639636 64.1420513,14.6855172 C64.9605128,15.6993103 65.5548718,16.3944828 65.5548718,17.0993103 C65.5640165,17.7058877 65.2635026,18.2760407 64.7558974,18.6151724 C64.3041453,19.0330411 63.6732865,19.2028752 63.0702564,19.0689655 C62.3589744,18.8758621 61.7548718,18.1324138 60.8584615,17.0413793 C59.9620513,15.9503448 59.3676923,15.2068966 59.3189744,14.4827586 C59.307751,13.8723795 59.5989525,13.2952613 60.0984615,12.937931 Z M71.06,12.0110345 L70.4753846,12.7351724 L65.7692308,8.96 C65.7713259,9.38926667 65.7452882,9.81821515 65.6912821,10.2441379 L64.9215385,9.6262069 C65.0131676,9.11966913 65.0555838,8.60559377 65.0482051,8.09103448 L65.4964103,7.55034483 L71.06,12.0110345 Z M69.4523077,2.52 C69.1697436,3.10896552 69.6374359,3.64 70.5435897,4.07448276 C71.4497436,4.50896552 72.034359,4.43172414 72.3071795,3.87172414 C72.58,3.31172414 72.2974359,2.80965517 71.4594872,2.40413793 C70.4266667,1.87310345 69.7641026,1.88275862 69.4523077,2.52 Z M73.6225641,5.35862069 L73.6225641,5.32965517 C74.1584615,5.54206897 74.5482051,5.44551724 74.7528205,5.03034483 C75.0938462,4.32551724 74.6066667,3.84275862 73.2912821,3.20551724 L72.8917949,3.03172414 C73.1548077,3.40558402 73.1848927,3.89375609 72.9697436,4.29655172 C72.4728205,5.32 71.6251282,5.58068966 70.1148718,4.85655172 C68.6046154,4.13241379 68.1564103,3.30206897 68.7410256,2.11448276 C69.4717949,0.637241379 70.6312821,0.859310345 72.8820513,1.95034483 C73.8056136,2.30318583 74.6450789,2.84240721 75.3471795,3.5337931 C75.750869,4.06229398 75.7894487,4.78101089 75.4446154,5.34896552 C75.2999718,5.77601877 74.9733459,6.11857033 74.5512701,6.28586864 C74.1291942,6.45316695 73.6542661,6.42832753 73.2523077,6.21793103 L73.1938462,6.21793103 L73.6225641,5.35862069 Z" id="Awards2019-black" fill="#010101"></path>
                    </g>
                    <path d="M55.98,63.2109979 L69.88,63.2109979 C69.88,63.2109979 70.76,63.2109979 70.76,64.0009979 C70.76,64.0009979 70.74,64.6509979 69.92,64.6509979 L56.61,64.6509979 C56.67,64.8643312 56.72,65.0743312 56.76,65.2809979 L68.08,65.2809979 C68.08,65.2809979 68.96,65.2909979 68.96,66.0709979 C68.96,66.0709979 68.94,66.7309979 68.12,66.7309979 L56.74,66.7309979 C56.7498948,66.9242046 56.7498948,67.1177911 56.74,67.3109979 L66.22,67.3109979 C66.22,67.3109979 67.1,67.3109979 67.1,68.1009979 C67.1,68.1009979 67.08,68.7509979 66.27,68.7509979 L56.36,68.7509979 C55.3953113,71.2493289 52.9931117,72.8968224 50.315,72.8968224 C47.6368883,72.8968224 45.2346887,71.2493289 44.27,68.7509979 L34.27,68.7509979 C33.43,68.7209979 33.43,68.1009979 33.43,68.1009979 C33.38,67.3109979 34.31,67.3109979 34.31,67.3109979 L43.91,67.3109979 C43.9001052,67.1177911 43.9001052,66.9242046 43.91,66.7309979 L32.54,66.7309979 C31.7,66.7009979 31.7,66.0709979 31.7,66.0709979 C31.65,65.2809979 32.58,65.2809979 32.58,65.2809979 L44.01,65.2809979 C44.05,65.0709979 44.15,64.8609979 44.15,64.6509979 L30.74,64.6509979 C29.91,64.6209979 29.91,64.0009979 29.91,64.0009979 C29.86,63.2109979 30.79,63.2109979 30.79,63.2109979 L44.79,63.2109979 C45.9518593,61.2224392 48.0818972,60 50.385,60 C52.6881028,60 54.8181407,61.2224392 55.98,63.2109979 Z M78.71,44.8211111 L82.04,44.8011111 L85.01,47.8711111 L87.91,44.8211111 L91.19,44.8211111 L87.16,49.0011111 L90.99,53.0411111 L87.78,53.0411111 L85.01,50.1111111 L82.19,53.0311111 L78.99,53.0311111 L82.82,48.9911111 L78.71,44.8211111 Z M64.86,53.0411111 L69.61,46.3811111 C69.61,46.3811111 70.61,44.7211111 71.72,44.8011111 C72.5016543,44.9165669 73.1985818,45.3557765 73.64,46.0111111 L78.48,53.0111111 L68.88,53.0111111 L70.39,50.8611111 L73.81,50.8611111 L71.71,47.9211111 L68,53.0011111 L64.86,53.0011111 L64.86,53.0411111 Z M44,46.9211111 L45.58,44.8011111 L59.1,44.8011111 C59.37,44.8011111 63.7,44.8011111 63.1,48.4811111 C62.9894201,48.9721786 62.7227853,49.414231 62.34,49.7411111 C61.9861093,50.0609337 61.5969331,50.339396 61.18,50.5711111 L63.98,53.0411111 L60.37,53.0411111 L57.89,50.9811111 L54.34,50.9811111 L54.34,53.0411111 L51.75,53.0411111 L51.75,48.7811111 L59.35,48.7811111 C59.6384984,48.821917 59.9304464,48.7348659 60.1494864,48.5427256 C60.3685264,48.3505852 60.4928716,48.0724669 60.49,47.7811111 C60.49,47.4311111 60.06,46.9311111 59.29,46.9311111 L49.97,46.9311111 L49.97,53.0711111 L47.32,53.0711111 L47.32,46.9311111 L44,46.9311111 L44,46.9211111 Z M32.12,44.8211111 L35.37,44.8211111 L38.44,48.1511111 L41.31,44.8211111 L44.58,44.8211111 L39.72,50.3411111 L39.72,53.0611111 L37.13,53.0511111 L37.12,50.2911111 L32.12,44.8211111 Z M21.61,44.8211111 L24.15,44.8211111 L24.15,47.6611111 L28.03,44.8111111 L31.84,44.8111111 L26.11,48.9611111 L31.89,53.0311111 L28.06,53.0311111 L24.17,50.2711111 L24.17,53.0411111 L21.59,53.0411111 L21.59,44.8211111 L21.61,44.8211111 Z M17.86,50.8911111 C17.86,50.8911111 18.57,50.8911111 18.76,50.4711111 C18.84,50.2711111 18.7,49.7611111 17.87,49.7611111 L13.19,49.6711111 C13.19,49.6711111 11.02,49.6711111 10.31,48.1511111 C9.6,46.6311111 10.92,44.8511111 13.31,44.7811111 C15.7,44.7111111 20.96,44.7811111 20.96,44.7811111 L19.28,46.9211111 L13.52,46.9211111 C13.52,46.9211111 13.05,46.9211111 12.98,47.1911111 C12.9414973,47.2842036 12.9540651,47.390608 13.0131965,47.4721686 C13.072328,47.5537293 13.1695502,47.5987592 13.27,47.5911111 C13.41,47.5911111 17.64,47.5911111 17.64,47.5911111 C18.7707288,47.5369524 19.8679908,47.9831723 20.64,48.8111111 C21.64,50.1111111 21.45,52.2711111 18.76,52.9311111 C17.3938386,53.0573644 16.0206849,53.0907744 14.65,53.0311111 L10.11,53.0311111 L11.76,50.9311111 L17.86,50.8911111 Z" id="shadow" fill="#2A2A2A" fill-rule="nonzero"></path>
                    <path d="M69.88,63.84 L55.98,63.84 C54.8181407,61.8514413 52.6881028,60.6290021 50.385,60.6290021 C48.0818972,60.6290021 45.9518593,61.8514413 44.79,63.84 L30.79,63.84 C30.79,63.84 29.86,63.84 29.91,64.63 C29.91,64.63 29.91,65.25 30.74,65.28 L44.15,65.28 C44.15,65.49 44.05,65.7 44.01,65.91 L32.58,65.91 C32.58,65.91 31.65,65.91 31.7,66.7 C31.7,66.7 31.7,67.33 32.54,67.36 L43.91,67.36 C43.9001052,67.5532067 43.9001052,67.7467933 43.91,67.94 L34.31,67.94 C34.31,67.94 33.38,67.94 33.43,68.73 C33.43,68.73 33.43,69.35 34.27,69.38 L44.27,69.38 C45.2346887,71.8783311 47.6368883,73.5258246 50.315,73.5258246 C52.9931117,73.5258246 55.3953113,71.8783311 56.36,69.38 L66.27,69.38 C67.08,69.38 67.1,68.73 67.1,68.73 C67.1,67.94 66.22,67.94 66.22,67.94 L56.74,67.94 C56.7498948,67.7467933 56.7498948,67.5532067 56.74,67.36 L68.12,67.36 C68.94,67.36 68.96,66.7 68.96,66.7 C68.96,65.92 68.08,65.91 68.08,65.91 L56.76,65.91 C56.72,65.7033333 56.67,65.4933333 56.61,65.28 L69.92,65.28 C70.74,65.28 70.76,64.63 70.76,64.63 C70.76,63.84 69.88,63.84 69.88,63.84" id="shield" fill="url(#linearGradient-3)" fill-rule="nonzero"></path>
                    <g id="Skytrax" transform="translate(9.195344, 44.416315)">
                        <polygon id="Mask" fill="url(#linearGradient-4)" fill-rule="nonzero" points="69.5146558 1.01368512 72.8446558 0.993685118 75.8146558 4.06368512 78.7146558 1.01368512 81.9946558 1.01368512 77.9646558 5.19368512 81.7946558 9.23368512 78.5846558 9.23368512 75.8146558 6.30368512 72.9946558 9.22368512 69.7946558 9.22368512 73.6246558 5.18368512"></polygon>
                        <path d="M55.6646558,9.23368512 L60.4146558,2.57368512 C60.4146558,2.57368512 61.4146558,0.913685118 62.5246558,0.993685118 C63.3063101,1.10914095 64.0032376,1.54835051 64.4446558,2.20368512 L69.2846558,9.20368512 L59.6846558,9.20368512 L61.1946558,7.05368512 L64.6146558,7.05368512 L62.5146558,4.11368512 L58.8046558,9.19368512 L55.6646558,9.19368512 L55.6646558,9.23368512 Z" id="Mask" fill="url(#linearGradient-5)" fill-rule="nonzero"></path>
                        <path d="M34.8046558,3.11368512 L36.3846558,0.993685118 L49.9046558,0.993685118 C50.1746558,0.993685118 54.5046558,0.993685118 53.9046558,4.67368512 C53.7940759,5.16475265 53.5274411,5.60680496 53.1446558,5.93368512 C52.7907651,6.25350773 52.4015889,6.53197003 51.9846558,6.76368512 L54.7846558,9.23368512 L51.1746558,9.23368512 L48.6946558,7.17368512 L45.1446558,7.17368512 L45.1446558,9.23368512 L42.5546558,9.23368512 L42.5546558,4.97368512 L50.1546558,4.97368512 C50.4431542,5.01449106 50.7351022,4.92743994 50.9541422,4.7352996 C51.1731822,4.54315925 51.2975274,4.26504088 51.2946558,3.97368512 C51.2946558,3.62368512 50.8646558,3.12368512 50.0946558,3.12368512 L40.7746558,3.12368512 L40.7746558,9.26368512 L38.1246558,9.26368512 L38.1246558,3.12368512 L34.8046558,3.12368512 L34.8046558,3.11368512 Z" id="Mask" fill="url(#linearGradient-6)" fill-rule="nonzero"></path>
                        <polygon id="Mask" fill="url(#linearGradient-7)" fill-rule="nonzero" points="22.9246558 1.01368512 26.1746558 1.01368512 29.2446558 4.34368512 32.1146558 1.01368512 35.3846558 1.01368512 30.5246558 6.53368512 30.5246558 9.25368512 27.9346558 9.24368512 27.9246558 6.48368512"></polygon>
                        <polygon id="Mask" fill="url(#linearGradient-8)" fill-rule="nonzero" points="12.4146558 1.01368512 14.9546558 1.01368512 14.9546558 3.85368512 18.8346558 1.00368512 22.6446558 1.00368512 16.9146558 5.15368512 22.6946558 9.22368512 18.8646558 9.22368512 14.9746558 6.46368512 14.9746558 9.23368512 12.3946558 9.23368512 12.3946558 1.01368512"></polygon>
                        <mask id="mask-11" fill="white">
                            <use xlink:href="#path-10"></use>
                        </mask>
                        <use id="Mask" fill="url(#linearGradient-9)" fill-rule="nonzero" xlink:href="#path-10"></use>
                    </g>
                    <g id="World-Airline" transform="translate(10.500000, 8.000000)" fill-rule="nonzero">
                        <path d="M27.06,2.58 C28.1910082,2.20699748 29.3696845,1.99820338 30.56,1.96 C31.0431551,2.02855328 31.4769774,2.29246179 31.76,2.69 C32.3398321,3.57299775 32.7281788,4.56771031 32.9,5.61 C33.2459294,6.58763919 33.2065977,7.66032014 32.79,8.61 C32.1903314,9.29914749 31.3492945,9.73219204 30.44,9.82 L28.93,10.18 L28.93,10.01 C28.28,7.5 27.06,2.58 27.06,2.58 Z M28.49,3.2 C28.91,5.05 29.41,6.89 29.85,8.73 L29.85,8.95 C30.31,8.84 30.76,8.73 31.21,8.58 C31.6846847,8.28504606 31.9306113,7.72972791 31.83,7.18 C31.7625391,6.26675126 31.5776837,5.36600152 31.28,4.5 C31.1436916,3.96841291 30.8593466,3.48641345 30.46,3.11 C29.84,2.69 29.11,3.11 28.46,3.2 L28.49,3.2 Z M19.68,5.88 C20.05,5.71 20.4,5.52 20.77,5.34 C21.67,7.23 22.6,9.11 23.52,11 C23.58,11.13 23.65,11.26 23.71,11.4 L26.41,10.1 C26.59,10.44 26.86,11.1 26.86,11.1 C26.86,11.1 24.4,12.28 23.13,12.88 C22.01,10.54 20.8,8.22 19.68,5.88 Z M14.76,9 C15.1426808,8.70162821 15.6286689,8.56843148 16.11,8.63 C16.5655236,8.74215786 16.9745973,8.99389552 17.28,9.35 C17.8061165,9.90431404 17.9966961,10.6971252 17.78,11.43 L17.53,11.78 C17.8834533,11.5981367 18.2969518,11.5727464 18.67,11.71 C19.0222964,11.9355241 19.333445,12.2196163 19.59,12.55 C19.83,12.87 20.08,13.18 20.33,13.49 C20.4823148,13.6958735 20.7078089,13.8354651 20.96,13.88 L21.1,13.88 C20.72,14.22 20.3,14.52 19.92,14.81 C19.58,14.43 19.18,13.96 18.82,13.53 C18.46,13.1 18.19,12.68 17.67,12.53 C17.02,12.58 16.51,13.19 16,13.53 C16.67,14.42 17.35,15.31 18.05,16.19 C17.74,16.46 17.44,16.64 17.12,16.91 C16.32,15.99 15.68,14.91 14.92,13.98 C14.16,13.05 13.23,11.8 12.42,10.68 C13.21,10.12 13.97,9.52 14.76,8.95 L14.76,9 Z M14.64,10.17 C14.39,10.35 14.1,10.59 13.92,10.73 C13.92,10.73 14.92,12.1 15.5,12.73 C15.9248929,12.4397981 16.3171715,12.1045173 16.67,11.73 C16.8579773,11.428311 16.8805559,11.0520009 16.73,10.73 C16.5266543,10.3866264 16.2458486,10.0955473 15.91,9.88 C15.4583719,9.78606957 14.9887723,9.90809152 14.64,10.21 L14.64,10.17 Z M7.15,16.09 C7.57007779,15.1938471 8.53264466,14.6840129 9.51,14.84 C10.8853396,15.2696735 12.114336,16.0728487 13.06,17.16 C13.692096,17.7254488 14.1001818,18.4990377 14.21,19.34 C14.1512673,20.1938188 13.6912135,20.969232 12.97,21.43 C12.466662,21.7466706 11.8534638,21.8373804 11.28,21.68 C10.4827201,21.4217161 9.74498644,21.0069534 9.11,20.46 C8.1660749,19.7918641 7.4087391,18.8933885 6.91,17.85 C6.7049571,17.2611158 6.78630999,16.6102926 7.13,16.09 L7.15,16.09 Z M7.96,16.54 C7.76900816,16.9606757 7.84345116,17.4543503 8.15,17.8 C8.15,17.8 8.43,18.15 8.52,18.24 C9.37636237,19.1698083 10.3924218,19.9386267 11.52,20.51 C11.9584946,20.7466318 12.4994953,20.6739601 12.86,20.33 C13.2034997,19.9571529 13.2566451,19.4011698 12.99,18.97 C12.6714617,18.5133351 12.2987434,18.0969652 11.88,17.73 C11.1369684,16.9362599 10.2289994,16.3150179 9.22,15.91 C8.71883154,15.8275475 8.22292445,16.0836307 8,16.54 L7.96,16.54 Z M3.44,21.22 C5.55,22.75 7.65,24.31 9.75,25.84 L9.84,25.9 C9.66,26.33 9.42,26.74 9.27,27.19 L3.53,25.67 C5.1,26.78 6.7,27.87 8.28,28.97 L8.38,29.04 C8.2,29.47 7.99,29.9 7.82,30.33 C5.25,29.73 2.69,29.07 0.12,28.44 L0.19,28.28 C0.32,27.95 0.48,27.62 0.62,27.28 C2.62,27.82 4.62,28.4 6.62,28.92 C6.4,28.76 5.76,28.33 5.69,28.27 C4.28,27.28 2.88,26.38 1.51,25.41 C1.51,25.41 1.89,24.61 2.06,24.23 C4.06,24.79 6.06,25.32 8.06,25.87 C7.86,25.72 7.66,25.59 7.46,25.46 C5.98,24.38 4.46,23.38 2.92,22.34 L3.43,21.22 L3.44,21.22 Z M41.92,0.82 L43.48,0.92 C43.71,1.82 43.83,2.76 44.03,3.67 L45.03,8.8 L43.72,8.8 C43.6,8.17 43.53,7.58 43.42,6.91 L43.42,6.83 C42.6,6.83 41.91,6.74 41.13,6.71 C40.95,7.32 40.71,7.93 40.54,8.54 C40.54,8.54 39.65,8.54 39.21,8.45 C39.21,8.45 41.07,3.36 41.97,0.85 L41.92,0.82 Z M42.6,1.94 C42.6,2 41.46,5.66 41.43,5.71 L43.24,5.8 C43.12,4.9 42.71,2.53 42.6,1.94 Z M48.73,1.73 L49.96,2.02 C49.96,2.02 48.7,7.09 48.11,9.58 C47.73,9.48 46.85,9.29 46.85,9.29 C46.96,8.86 48.21,3.82 48.73,1.73 Z M67.58,11.47 C67.86,11.74 68.21,12.07 68.5,12.33 C68.5,12.33 64.91,16.13 63.18,18 C62.89,17.73 62.18,17.14 62.18,17.14 L67.54,11.47 L67.58,11.47 Z M61.71,6.98 C62.04,7.23 62.38,7.45 62.71,7.69 C61.47,9.38 60.26,11.09 59.04,12.79 L58.78,13.16 L61.21,14.91 C60.99,15.23 60.57,15.76 60.57,15.76 C60.57,15.76 58.28,14.14 57.17,13.28 C58.69,11.18 60.17,9.06 61.71,6.96 L61.71,6.98 Z M65.16,19.88 C67.22,18.31 69.3,16.76 71.36,15.19 C71.46,15.33 72.03,16.06 72.24,16.35 C71.32,17.98 69.11,21.53 69,21.72 C70.54,20.56 72.08,19.4 73.63,18.26 C73.63,18.26 74.08,18.8 74.34,19.14 C72.34,20.72 70.2,22.26 68.14,23.83 L67.14,22.59 C67.14,22.59 69.63,18.8 70.58,17.24 C70.37,17.38 67.23,19.8 65.83,20.81 C65.6,20.5 65.36,20.2 65.14,19.88 L65.16,19.88 Z M69.62,26.28 L76.62,23 C76.91,23.59 78.37,26.83 78.37,26.83 L77.48,27.28 C77.1,26.37 76.66,25.49 76.27,24.59 C75.61,24.86 74.98,25.21 74.32,25.48 C74.65,26.35 75.09,27.18 75.46,28.03 L74.46,28.48 C74.08,27.64 73.67,26.78 73.29,25.94 C72.53,26.28 71.82,26.63 71.03,26.94 C71.44,27.94 71.9,28.8 72.33,29.73 C72.02,29.89 71.71,30.04 71.39,30.18 C71.27,29.93 71.16,29.68 71.04,29.42 C70.55,28.42 70.04,27.34 69.57,26.29 L69.62,26.28 Z M56.28,4.15 C56.7338686,4.33586287 57.0941371,4.69613136 57.28,5.15 C57.4252273,5.59853752 57.4252273,6.08146248 57.28,6.53 C57.0683772,7.265317 56.481899,7.83275366 55.74,8.02 L55.32,8.02 C55.6558311,8.2295973 55.8880826,8.57071673 55.96,8.96 C55.9430026,9.37845047 55.8550868,9.79097841 55.7,10.18 C55.56,10.55 55.51,10.84 55.37,11.18 C55.2959074,11.4890109 55.2457587,11.8032762 55.22,12.12 C55.04,12.06 54.05,11.59 54.05,11.59 C54.0689312,11.0248174 54.2051462,10.4697415 54.45,9.96 C54.6871422,9.51616434 54.7714881,9.00657447 54.69,8.51 C54.32,7.98 53.63,7.87 53.08,7.6 C52.66,8.6 52.21,9.67 51.82,10.72 C51.42,10.59 51.05,10.4 50.66,10.27 C51.03,9.1 51.66,8.02 52.04,6.88 C52.42,5.74 53.04,4.31 53.6,3.05 C54.49,3.44 55.4,3.79 56.29,4.17 L56.28,4.15 Z M55.18,4.7 C54.9,4.57 54.63,4.46 54.42,4.38 C54.42,4.38 53.72,5.96 53.42,6.75 C53.8856633,6.95912286 54.3715358,7.11996341 54.87,7.23 C55.2303992,7.2365488 55.5694269,7.059501 55.77,6.76 C55.9593929,6.40823286 56.0686675,6.01894198 56.09,5.62 C55.9403706,5.18156872 55.5915474,4.84016722 55.15,4.7 L55.18,4.7 Z" id="World-Airline---white" fill="#FFFFFF"></path>
                        <path d="M27.2,2.77 C28.3316688,2.3981649 29.5097023,2.18611886 30.7,2.14 C31.1835737,2.21434474 31.6164533,2.48128715 31.9,2.88 C32.4841577,3.76075804 32.8728777,4.7564268 33.04,5.8 C33.3841059,6.77714918 33.3484131,7.84793479 32.94,8.8 C32.335978,9.48896316 31.4919835,9.92168916 30.58,10.01 C30.08,10.13 29.58,10.26 29.07,10.37 C29.0744257,10.3134197 29.0744257,10.2565803 29.07,10.2 C28.48,7.73 27.25,2.81 27.25,2.81 L27.2,2.77 Z M28.68,3.43 C29.1,5.28 29.6,7.12 30.04,8.96 L30.04,9.18 C30.5,9.07 30.96,8.96 31.4,8.81 C31.8746847,8.51504606 32.1206113,7.95972791 32.02,7.41 C31.9600501,6.4948101 31.7715328,5.59262033 31.46,4.73 C31.3315676,4.17570989 31.0429198,3.67144558 30.63,3.28 C30.01,2.86 29.28,3.28 28.63,3.37 L28.68,3.43 Z M19.75,6.02 C20.12,5.86 20.48,5.66 20.84,5.48 C21.74,7.38 22.67,9.26 23.59,11.14 L23.78,11.54 L26.48,10.28 C26.66,10.63 26.93,11.28 26.93,11.28 C26.93,11.28 24.41,12.51 23.14,13.1 C22.02,10.76 20.87,8.43 19.75,6.1 L19.75,6.02 Z M14.89,9.22 C15.2827928,8.91128217 15.7867305,8.78076594 16.28,8.86 C16.7386507,8.96560043 17.1518727,9.21423397 17.46,9.57 C17.9861165,10.124314 18.1766961,10.9171252 17.96,11.65 C17.88,11.77 17.8,11.89 17.71,12 C18.064729,11.8228325 18.4762602,11.797563 18.85,11.93 C19.2022964,12.1555241 19.513445,12.4396163 19.77,12.77 C20.01,13.09 20.25,13.41 20.51,13.71 C20.6605185,13.9196308 20.8862529,14.0629542 21.14,14.11 L21.28,14.11 C20.9,14.46 20.48,14.75 20.1,15.05 C19.75,14.66 19.36,14.19 18.99,13.76 C18.7315383,13.3093643 18.3304681,12.9575484 17.85,12.76 C17.2,12.76 16.76,13.35 16.24,13.68 C16.92,14.57 17.58,15.48 18.24,16.36 C17.93,16.63 17.58,16.86 17.24,17.13 C16.43,16.21 15.8,15.13 15.04,14.21 C14.21,13.1 13.35,12.02 12.54,10.9 C13.33,10.34 14.09,9.74 14.87,9.17 L14.89,9.22 Z M14.76,10.4 C14.51,10.57 14.28,10.75 14.1,10.89 C14.1,10.89 15.1,12.29 15.64,12.89 C16.0568595,12.5973017 16.4422527,12.2621772 16.79,11.89 C16.9686328,11.5805989 16.9686328,11.1994011 16.79,10.89 C16.5962215,10.540067 16.317713,10.2443667 15.98,10.03 C15.5266577,9.93387508 15.054678,10.0602319 14.71,10.37 L14.76,10.4 Z M7.28,16.28 C7.70512855,15.3886736 8.66379964,14.8809029 9.64,15.03 C11.0153396,15.4596735 12.244336,16.2628487 13.19,17.35 C13.822096,17.9154488 14.2301818,18.6890377 14.34,19.53 C14.2804342,20.3810046 13.8250625,21.1547662 13.11,21.62 C12.608046,21.9303764 12.0005775,22.0207735 11.43,21.87 C10.6413826,21.6153031 9.91076472,21.2075164 9.28,20.67 C8.33675861,20.0080476 7.5820243,19.112016 7.09,18.07 C6.86607201,17.4769406 6.93656353,16.8128363 7.28,16.28 Z M8.11,16.73 C7.90478221,17.1521402 7.97170908,17.6560602 8.28,18.01 C8.28,18.01 8.56,18.36 8.65,18.45 C9.50563027,19.3806144 10.5218451,20.1495503 11.65,20.72 C12.0884946,20.9566318 12.6294953,20.8839601 12.99,20.54 C13.3402265,20.1701837 13.3938243,19.6094682 13.12,19.18 C12.8014617,18.7233351 12.4287434,18.3069652 12.01,17.94 C11.2495343,17.1368516 10.3158382,16.5178076 9.28,16.13 C8.78019833,16.0389217 8.2810582,16.2925831 8.06,16.75 L8.11,16.73 Z M3.55,21.42 C5.65,22.95 7.75,24.51 9.86,26.04 L9.94,26.1 C9.77,26.53 9.53,26.94 9.38,27.39 L3.64,25.87 C5.21,26.99 6.8,28.07 8.39,29.17 L8.48,29.24 C8.3,29.67 8.1,30.1 7.93,30.53 C5.35,29.93 2.8,29.27 0.23,28.64 L0.3,28.47 C0.43,28.14 0.59,27.81 0.73,27.47 C2.73,28.01 4.73,28.59 6.73,29.12 C6.5,28.95 5.87,28.52 5.8,28.46 C4.41,27.51 3.01,26.57 1.64,25.6 L2.19,24.42 C4.19,24.98 6.19,25.51 8.19,26.06 C7.99800346,25.9119741 7.79767446,25.7750826 7.59,25.65 C6.12,24.57 4.59,23.57 3.05,22.53 L3.57,21.41 L3.55,21.42 Z M42.06,1.03 L43.62,1.13 C43.86,2.03 43.97,2.97 44.17,3.88 C44.49,5.59 44.82,7.3 45.17,9.01 L43.86,9.01 C43.74,8.38 43.67,7.79 43.56,7.12 L43.56,7.04 C42.75,6.99 42.05,6.95 41.27,6.92 C41.1,7.53 40.86,8.14 40.68,8.75 C40.68,8.75 39.8,8.75 39.36,8.66 C39.36,8.66 41.21,3.57 42.11,1.06 L42.06,1.03 Z M42.74,2.15 C42.74,2.21 41.6,5.87 41.58,5.92 L43.38,6.01 C43.27,5.11 42.86,2.74 42.74,2.15 Z M48.88,1.94 C49.25,2.03 49.72,2.15 50.1,2.23 C50.1,2.23 48.85,7.3 48.26,9.79 C47.87,9.69 47,9.5 47,9.5 C47.11,9.07 48.35,4.03 48.88,1.94 Z M67.72,11.68 C68,11.95 68.36,12.28 68.65,12.54 C68.65,12.54 65.06,16.34 63.33,18.21 C63.04,17.94 62.33,17.35 62.33,17.35 L67.68,11.68 L67.72,11.68 Z M61.86,7.19 C62.18,7.44 62.52,7.66 62.86,7.9 C61.63,9.59 60.42,11.3 59.19,13 C59.11,13.13 59.02,13.25 58.94,13.37 C59.74,13.96 60.55,14.54 61.36,15.12 C61.14,15.44 60.72,15.97 60.72,15.97 C60.72,15.97 58.44,14.35 57.28,13.51 C58.8,11.41 60.28,9.29 61.82,7.19 L61.86,7.19 Z M56.37,4.39 C56.8251512,4.57393008 57.1860699,4.93484876 57.37,5.39 C57.5152273,5.83853752 57.5152273,6.32146248 57.37,6.77 C57.1608872,7.51450652 56.5697182,8.09041954 55.82,8.28 L55.4,8.28 C55.7341047,8.49138831 55.9657835,8.83166654 56.04,9.22 C56.0225523,9.63743239 55.9381431,10.0493495 55.79,10.44 C55.64,10.82 55.59,11.1 55.46,11.44 C55.3800868,11.7482248 55.3265601,12.0626938 55.3,12.38 C55.12,12.38 54.13,11.86 54.13,11.86 C54.1465616,11.2944931 54.2828956,10.738932 54.53,10.23 C54.7761609,9.78563733 54.8609594,9.26977971 54.77,8.77 C54.4,8.24 53.71,8.14 53.16,7.86 C52.74,8.86 52.29,9.93 51.9,10.98 C51.51,10.85 51.13,10.67 50.74,10.53 C51.12,9.37 51.69,8.29 52.13,7.15 C52.57,6.01 53.13,4.58 53.69,3.31 C54.58,3.7 55.48,4.05 56.37,4.43 L56.37,4.39 Z M55.28,4.92 C55,4.79 54.73,4.69 54.52,4.61 C54.52,4.61 53.82,6.18 53.52,6.97 C53.9781435,7.18932928 54.4618876,7.35057734 54.96,7.45 C55.3231381,7.46861144 55.6677608,7.28864177 55.86,6.98 C56.0564147,6.63110684 56.1661592,6.24014196 56.18,5.84 C56.023706,5.40580933 55.6774511,5.06692148 55.24,4.92 L55.28,4.92 Z M65.28,20.09 C67.34,18.52 69.41,16.97 71.48,15.4 C71.58,15.54 72.15,16.27 72.36,16.56 C71.44,18.19 69.22,21.74 69.12,21.93 C70.66,20.77 72.2,19.61 73.74,18.47 C73.74,18.47 74.2,19.01 74.45,19.35 C72.45,20.93 70.32,22.47 68.26,24.04 C67.99,23.69 67.26,22.8 67.26,22.8 C67.26,22.8 69.76,19.01 70.7,17.45 C70.5,17.59 67.35,20.01 65.96,21.02 C65.73,20.71 65.49,20.41 65.27,20.09 L65.28,20.09 Z M69.77,26.48 L76.77,23.2 C77.06,23.79 78.52,27.03 78.52,27.03 L77.58,27.44 C77.21,26.53 76.77,25.65 76.38,24.75 C75.71,25.02 75.08,25.37 74.38,25.64 C74.72,26.51 75.15,27.34 75.52,28.19 L74.58,28.64 C74.19,27.8 73.78,26.94 73.41,26.1 C72.65,26.44 71.93,26.79 71.15,27.1 C71.56,28.05 72.02,28.96 72.45,29.89 C72.14,30.05 71.82,30.2 71.51,30.34 C71.39,30.09 71.27,29.84 71.16,29.58 C70.66,28.58 70.16,27.5 69.69,26.45 L69.77,26.48 Z" id="World-Airline---black" fill="#010101"></path>
                    </g>
                </g>
            </g>
        </g>
    </g>
</svg>